<svg width="153" height="46" viewBox="0 0 153 46" fill="none" xmlns="http://www.w3.org/2000/svg" alt="App Store"><path d="M151.533 40.2085C151.533 40.7755 151.421 41.3369 151.204 41.8607C150.987 42.3845 150.668 42.8603 150.267 43.261C149.866 43.6617 149.39 43.9794 148.866 44.196C148.341 44.4126 147.78 44.5237 147.213 44.5232H5.82982C4.68391 44.5243 3.58444 44.0705 2.7732 43.2614C1.96197 42.4522 1.5054 41.3541 1.50391 40.2085V5.80073C1.5054 4.65461 1.96179 3.55591 2.77286 2.7459C3.58393 1.93589 4.68339 1.48077 5.82982 1.48047H147.211C147.779 1.48047 148.341 1.59222 148.865 1.80935C149.389 2.02648 149.866 2.34473 150.267 2.74591C150.668 3.1471 150.986 3.62337 151.203 4.14753C151.42 4.67168 151.532 5.23344 151.532 5.80073L151.533 40.2085Z" fill="white"></path><path d="M147.212 45.5256H5.8288C4.41717 45.5253 3.0633 44.9652 2.06428 43.9681C1.06526 42.971 0.502686 41.6185 0.5 40.2072L0.5 5.80057C0.502088 4.38861 1.06429 3.03513 2.06328 2.03704C3.06227 1.03895 4.41647 0.477754 5.8288 0.476562L147.21 0.476563C148.623 0.478349 149.976 1.03974 150.975 2.0377C151.974 3.03566 152.537 4.3888 152.539 5.80057V40.2072C152.542 43.1407 150.147 45.5256 147.212 45.5256Z" fill="#A6A6A6"></path><path d="M151.533 40.2085C151.533 40.7755 151.421 41.3369 151.204 41.8607C150.987 42.3845 150.668 42.8603 150.267 43.261C149.866 43.6617 149.39 43.9794 148.866 44.196C148.341 44.4126 147.78 44.5237 147.213 44.5232H5.82982C4.68391 44.5243 3.58444 44.0705 2.7732 43.2614C1.96197 42.4522 1.5054 41.3541 1.50391 40.2085V5.80073C1.5054 4.65461 1.96179 3.55591 2.77286 2.7459C3.58393 1.93589 4.68339 1.48077 5.82982 1.48047H147.211C147.779 1.48047 148.341 1.59222 148.865 1.80935C149.389 2.02648 149.866 2.34473 150.267 2.74591C150.668 3.1471 150.986 3.62337 151.203 4.14753C151.42 4.67168 151.532 5.23344 151.532 5.80073L151.533 40.2085Z" fill="black"></path><path d="M34.4509 22.7642C34.4182 19.1334 37.4246 17.3669 37.5621 17.2847C35.8595 14.803 33.2204 14.4639 32.293 14.4368C30.0766 14.2036 27.9266 15.7628 26.7975 15.7628C25.6458 15.7628 23.9071 14.4594 22.0332 14.4977C19.6218 14.5348 17.3659 15.9306 16.1286 18.0981C13.5752 22.5175 15.4795 29.012 17.9259 32.5842C19.1496 34.3348 20.5796 36.2871 22.4513 36.2184C24.2824 36.144 24.9664 35.0524 27.1761 35.0524C29.3655 35.0524 30.0078 36.2184 31.9167 36.1745C33.8819 36.1441 35.1191 34.4171 36.3001 32.6518C37.7142 30.6477 38.2822 28.6717 38.3047 28.5704C38.2596 28.5546 34.4892 27.1149 34.4509 22.7642ZM30.8451 12.0869C31.8299 10.8556 32.5038 9.18041 32.3167 7.48047C30.8913 7.54355 29.1086 8.46619 28.0821 9.67045C27.1738 10.7317 26.3625 12.471 26.5721 14.1068C28.1733 14.2262 29.8174 13.299 30.8451 12.0869Z" fill="white"></path><path d="M147.211 0.476563H71.4824L101.144 45.5256H147.211C148.623 45.5244 149.977 44.9635 150.976 43.9659C151.975 42.9683 152.537 41.6154 152.54 40.2039V5.80057C152.538 4.3887 151.975 3.0354 150.977 2.03737C149.978 1.03934 148.624 0.478052 147.211 0.476563Z" fill="url(#paint0_linear_3131_1819)"></path><path d="M60.9686 35.9678H58.4095L57.0078 31.5641H52.1353L50.8 35.9678H48.3086L53.1371 20.9758H56.1187L60.9686 35.9678ZM56.5852 29.7166L55.3175 25.8019C55.1834 25.402 54.931 24.4602 54.5614 22.9777H54.5163C54.3676 23.6153 54.1298 24.5571 53.8042 25.8019L52.5579 29.7166H56.5852ZM73.3615 30.4297C73.3615 32.2682 72.8623 33.7215 71.8628 34.7883C70.9681 35.738 69.8559 36.2122 68.5296 36.2122C67.0974 36.2122 66.0675 35.7019 65.4421 34.679V40.3511H63.0397V28.7106C63.0397 27.5559 63.0093 26.3719 62.9507 25.1575H65.0635L65.1976 26.871H65.2427C66.0438 25.58 67.2597 24.9345 68.8913 24.9345C70.1669 24.9345 71.2318 25.438 72.0837 26.4463C72.9344 27.4568 73.3615 28.7839 73.3615 30.4297ZM70.914 30.5176C70.914 29.4654 70.6774 28.598 70.2019 27.9142C69.6824 27.2033 68.9849 26.8473 68.1105 26.8473C67.5177 26.8473 66.9791 27.0456 66.498 27.4365C66.0157 27.8308 65.7002 28.3456 65.5525 28.9833C65.4866 29.2217 65.4492 29.4671 65.441 29.7144V31.518C65.441 32.3032 65.6821 32.9667 66.1644 33.5097C66.6467 34.0504 67.2732 34.3219 68.044 34.3219C68.9488 34.3219 69.6531 33.9716 70.1568 33.2765C70.6616 32.5792 70.914 31.6599 70.914 30.5176ZM85.7984 30.4297C85.7984 32.2682 85.2992 33.7215 84.2997 34.7883C83.4039 35.738 82.2928 36.2122 80.9654 36.2122C79.5332 36.2122 78.5032 35.7019 77.8779 34.679V40.3511H75.4754V28.7106C75.4754 27.5559 75.445 26.3719 75.3864 25.1575H77.4992L77.6333 26.871H77.6784C78.4785 25.58 79.6943 24.9345 81.3271 24.9345C82.6015 24.9345 83.6664 25.438 84.5205 26.4463C85.3702 27.4568 85.7984 28.7839 85.7984 30.4297ZM83.3498 30.5176C83.3498 29.4654 83.112 28.598 82.6365 27.9142C82.117 27.2033 81.4217 26.8473 80.5473 26.8473C79.9546 26.8473 79.416 27.0456 78.9326 27.4365C78.4503 27.8308 78.1359 28.3456 77.9883 28.9833C77.915 29.2807 77.8756 29.5229 77.8756 29.7144V31.518C77.8756 32.3032 78.1179 32.9667 78.5979 33.5097C79.0802 34.0493 79.7067 34.3219 80.4797 34.3219C81.3857 34.3219 82.09 33.9716 82.5925 33.2765C83.0974 32.5792 83.3498 31.6599 83.3498 30.5176ZM99.7035 31.7624C99.7035 33.0388 99.2573 34.0763 98.3705 34.8773C97.3946 35.7515 96.0323 36.1897 94.2857 36.1897C92.6721 36.1897 91.3785 35.8788 90.4026 35.2558L90.9581 33.2539C92.0117 33.878 93.169 34.189 94.4288 34.189C95.3348 34.189 96.039 33.9839 96.5416 33.5773C97.0453 33.1695 97.3 32.6242 97.3 31.9438C97.3 31.3343 97.0893 30.824 96.6757 30.4083C96.2599 29.9938 95.5725 29.6074 94.6068 29.2525C91.9813 28.2735 90.6674 26.8417 90.6674 24.9581C90.6674 23.728 91.1317 22.7208 92.0579 21.9334C92.9842 21.1471 94.2124 20.7539 95.7404 20.7539C97.105 20.7539 98.242 20.9916 99.1446 21.4659L98.5417 23.4238C97.6921 22.9642 96.7332 22.7344 95.6604 22.7344C94.8131 22.7344 94.1482 22.9428 93.6727 23.3573C93.2727 23.728 93.0698 24.1797 93.0698 24.7159C93.0698 25.3074 93.3008 25.7985 93.7606 26.1838C94.1595 26.5387 94.8874 26.9251 95.9399 27.3396C97.2312 27.8601 98.18 28.4662 98.7874 29.1624C99.3993 29.8586 99.7035 30.7271 99.7035 31.7624ZM107.667 26.96H105.019V32.2085C105.019 33.5435 105.485 34.2093 106.421 34.2093C106.85 34.2093 107.206 34.1732 107.488 34.0977L107.554 35.9216C107.081 36.0985 106.458 36.1874 105.686 36.1874C104.737 36.1874 103.996 35.8979 103.46 35.3189C102.927 34.7399 102.659 33.7699 102.659 32.4045V26.9555H101.082V25.153H102.659V23.1737L105.019 22.4617V25.153H107.667V26.96ZM119.591 30.4737C119.591 32.1353 119.115 33.4995 118.167 34.5664C117.174 35.6647 115.853 36.2122 114.207 36.2122C112.618 36.2122 111.355 35.6861 110.413 34.6351C109.471 33.5818 109 32.2547 109 30.6539C109 28.9787 109.487 27.6066 110.457 26.5398C111.429 25.4718 112.739 24.9379 114.385 24.9379C115.972 24.9379 117.246 25.4651 118.211 26.5173C119.132 27.5379 119.591 28.856 119.591 30.4737ZM117.101 30.5289C117.101 29.5386 116.887 28.6892 116.457 27.9784C115.954 27.12 115.232 26.6907 114.298 26.6907C113.336 26.6907 112.598 27.12 112.095 27.9784C111.665 28.6892 111.451 29.5533 111.451 30.5739C111.451 31.5653 111.665 32.4169 112.095 33.1255C112.615 33.9839 113.339 34.4132 114.278 34.4132C115.196 34.4132 115.916 33.9749 116.437 33.1041C116.879 32.3764 117.101 31.5213 117.101 30.5289ZM127.403 27.2698C127.153 27.2247 126.9 27.2024 126.646 27.2033C125.801 27.2033 125.147 27.521 124.688 28.1609C124.289 28.7241 124.088 29.4361 124.088 30.2957V35.9678H121.686V28.5619C121.688 27.4271 121.665 26.2924 121.616 25.1587H123.708L123.796 27.227H123.863C124.118 26.5161 124.516 25.9427 125.064 25.5135C125.565 25.1385 126.174 24.9354 126.8 24.9345C127.022 24.9345 127.223 24.9503 127.401 24.9784L127.403 27.2698ZM138.148 30.0512C138.154 30.4163 138.124 30.7812 138.06 31.1406H130.853C130.88 32.2085 131.229 33.0264 131.898 33.5897C132.506 34.0921 133.291 34.3444 134.256 34.3444C135.323 34.3444 136.296 34.1755 137.172 33.8341L137.548 35.5003C136.525 35.9464 135.317 36.1683 133.923 36.1683C132.246 36.1683 130.93 35.6749 129.973 34.6903C129.017 33.7046 128.538 32.3798 128.538 30.7204C128.538 29.0914 128.983 27.7339 129.875 26.6513C130.808 25.4955 132.068 24.9176 133.655 24.9176C135.213 24.9176 136.393 25.4955 137.194 26.6513C137.829 27.5672 138.148 28.7027 138.148 30.0512ZM135.857 29.4282C135.874 28.7151 135.716 28.1012 135.39 27.5818C134.975 26.9127 134.335 26.5792 133.477 26.5792C132.692 26.5792 132.052 26.9048 131.565 27.5582C131.165 28.0775 130.927 28.7016 130.854 29.426L135.857 29.4282Z" fill="white"></path><path d="M51.4442 15.6753C50.776 15.6753 50.198 15.6426 49.7168 15.5874V8.33928C50.3898 8.23535 51.0698 8.18413 51.7507 8.18607C54.5058 8.18607 55.7747 9.54129 55.7747 11.7504C55.7747 14.2987 54.276 15.6753 51.4442 15.6753ZM51.8476 9.11546C51.4758 9.11546 51.1591 9.13799 50.8966 9.19207V14.702C51.0386 14.7245 51.3113 14.7346 51.6944 14.7346C53.4996 14.7346 54.5272 13.7072 54.5272 11.7831C54.5272 10.0674 53.5976 9.11546 51.8476 9.11546ZM59.7287 15.7305C58.1759 15.7305 57.1697 14.5713 57.1697 12.9975C57.1697 11.3573 58.1973 10.1879 59.8166 10.1879C61.3469 10.1879 62.3757 11.2919 62.3757 12.9108C62.3757 14.5713 61.3153 15.7305 59.7287 15.7305ZM59.7738 11.0509C58.9208 11.0509 58.3743 11.8484 58.3743 12.9637C58.3743 14.0576 58.932 14.8552 59.7625 14.8552C60.593 14.8552 61.1508 14.0024 61.1508 12.9412C61.1508 11.8597 60.6043 11.0509 59.7738 11.0509ZM71.2303 10.2972L69.5682 15.6099H68.4853L67.7969 13.3028C67.6257 12.7385 67.4831 12.1658 67.3698 11.5871H67.3472C67.2605 12.1661 67.096 12.7463 66.9213 13.3028L66.1889 15.6099H65.0947L63.5307 10.2972H64.7443L65.346 12.8229C65.488 13.4245 65.6074 13.9922 65.7066 14.5285H65.7291C65.8159 14.0812 65.9579 13.5225 66.1663 12.8342L66.9213 10.2983H67.8836L68.6059 12.7801C68.7806 13.3817 68.9226 13.972 69.033 14.5296H69.0645C69.1412 13.9832 69.2617 13.4031 69.4251 12.7801L70.0708 10.2983L71.2303 10.2972ZM77.349 15.6099H76.1681V12.5593C76.1681 11.6198 75.8075 11.1489 75.0965 11.1489C74.3967 11.1489 73.9156 11.7504 73.9156 12.45V15.6099H72.7346V11.8158C72.7346 11.346 72.7234 10.8424 72.6907 10.2961H73.7296L73.7849 11.1162H73.8175C74.1353 10.5484 74.7798 10.1879 75.5021 10.1879C76.6177 10.1879 77.3501 11.0407 77.3501 12.4286L77.349 15.6099ZM80.6056 15.6099H79.4235V7.85938H80.6056V15.6099ZM84.9112 15.7305C83.3596 15.7305 82.3522 14.5713 82.3522 12.9975C82.3522 11.3573 83.3798 10.1879 84.998 10.1879C86.5293 10.1879 87.557 11.2919 87.557 12.9108C87.5581 14.5713 86.4967 15.7305 84.9112 15.7305ZM84.9552 11.0509C84.1021 11.0509 83.5556 11.8484 83.5556 12.9637C83.5556 14.0576 84.1145 14.8552 84.9428 14.8552C85.7744 14.8552 86.331 14.0024 86.331 12.9412C86.3321 11.8597 85.7868 11.0509 84.9552 11.0509ZM92.2131 15.6099L92.1275 14.9982H92.0959C91.7353 15.4905 91.2091 15.7305 90.542 15.7305C89.5898 15.7305 88.9137 15.0636 88.9137 14.1669C88.9137 12.8556 90.0507 12.1774 92.0193 12.1774V12.0794C92.0193 11.3798 91.6485 11.0294 90.9161 11.0294C90.3921 11.0294 89.9324 11.1613 89.5279 11.4237L89.2878 10.6476C89.7791 10.3411 90.3921 10.1879 91.1122 10.1879C92.5004 10.1879 93.2013 10.9202 93.2013 12.3858V14.3426C93.2013 14.8788 93.225 15.2945 93.278 15.6111L92.2131 15.6099ZM92.0508 12.9637C90.7392 12.9637 90.0811 13.2814 90.0811 14.035C90.0811 14.5927 90.4203 14.8653 90.8913 14.8653C91.4919 14.8653 92.0508 14.4068 92.0508 13.7838V12.9637ZM98.9358 15.6099L98.8806 14.7572H98.8479C98.5087 15.4015 97.9385 15.7305 97.1419 15.7305C95.8607 15.7305 94.9119 14.6039 94.9119 13.0189C94.9119 11.3573 95.8956 10.1868 97.2388 10.1868C97.9498 10.1868 98.4535 10.4268 98.7375 10.9089H98.7611V7.85938H99.9432V14.1781C99.9432 14.6918 99.9556 15.1728 99.9871 15.6099H98.9358ZM98.7611 12.4838C98.7611 11.7403 98.2687 11.1061 97.5171 11.1061C96.6416 11.1061 96.1063 11.8822 96.1063 12.975C96.1063 14.0463 96.6618 14.7797 97.4934 14.7797C98.236 14.7797 98.7611 14.1342 98.7611 13.3693V12.4838ZM107.438 15.7305C105.886 15.7305 104.88 14.5713 104.88 12.9975C104.88 11.3573 105.908 10.1879 107.526 10.1879C109.057 10.1879 110.085 11.2919 110.085 12.9108C110.086 14.5713 109.025 15.7305 107.438 15.7305ZM107.482 11.0509C106.63 11.0509 106.083 11.8484 106.083 12.9637C106.083 14.0576 106.641 14.8552 107.47 14.8552C108.302 14.8552 108.859 14.0024 108.859 12.9412C108.861 11.8597 108.314 11.0509 107.482 11.0509ZM116.436 15.6099H115.253V12.5593C115.253 11.6198 114.893 11.1489 114.182 11.1489C113.482 11.1489 113.002 11.7504 113.002 12.45V15.6099H111.82V11.8158C111.82 11.346 111.809 10.8424 111.776 10.2961H112.815L112.87 11.1162H112.903C113.22 10.5484 113.865 10.1868 114.586 10.1868C115.702 10.1868 116.436 11.0396 116.436 12.4275V15.6099ZM124.381 11.1827H123.082V13.7624C123.082 14.4192 123.309 14.747 123.769 14.747C123.977 14.747 124.152 14.7245 124.293 14.6918L124.326 15.5885C124.097 15.6764 123.79 15.7203 123.41 15.7203C122.479 15.7203 121.922 15.2066 121.922 13.8616V11.1827H121.147V10.2972H121.922V9.32387L123.082 8.97352V10.2961H124.381V11.1827ZM130.633 15.6099H129.453V12.5818C129.453 11.631 129.093 11.15 128.381 11.15C127.769 11.15 127.199 11.5657 127.199 12.4072V15.6099H126.019V7.85938H127.199V11.0509H127.223C127.595 10.4718 128.133 10.1868 128.821 10.1868C129.945 10.1868 130.633 11.061 130.633 12.45V15.6099ZM137.037 13.2375H133.494C133.516 14.2435 134.182 14.8112 135.168 14.8112C135.692 14.8112 136.174 14.7234 136.6 14.56L136.784 15.3801C136.281 15.5987 135.69 15.708 135.001 15.708C133.339 15.708 132.355 14.658 132.355 13.0302C132.355 11.4012 133.363 10.1767 134.868 10.1767C136.226 10.1767 137.078 11.1827 137.078 12.7024C137.086 12.8817 137.072 13.0613 137.037 13.2375ZM135.955 12.3959C135.955 11.5758 135.541 10.9968 134.786 10.9968C134.108 10.9968 133.571 11.5871 133.495 12.3959H135.955Z" fill="white"></path><defs><linearGradient id="paint0_linear_3131_1819" x1="112.01" y1="45.6452" x2="112.01" y2="-116.823" gradientUnits="userSpaceOnUse"><stop stop-color="#1A1A1A" stop-opacity="0.1"></stop><stop offset="0.123" stop-color="#212121" stop-opacity="0.151"></stop><stop offset="0.308" stop-color="#353535" stop-opacity="0.227"></stop><stop offset="0.532" stop-color="#575757" stop-opacity="0.318"></stop><stop offset="0.783" stop-color="#858585" stop-opacity="0.421"></stop><stop offset="1" stop-color="#B3B3B3" stop-opacity="0.51"></stop></linearGradient></defs></svg>