<svg xmlns="http://www.w3.org/2000/svg" width="175" height="40" viewBox="0 0 189 40" fill="none"><path d="M108.332 24.5606L119.555 13.6306H108.502V8.48376H127.408V13.7151L116.183 24.6028H127.621V29.7497H108.336L108.332 24.5606ZM100.358 1.48923H106.205V6.78033H100.358V1.48923ZM100.279 8.54783H106.126V29.8138H100.279V8.54783ZM29.5627 19.1167C29.586 13.0383 34.5452 8.12751 40.6445 8.14305C46.7437 8.15854 51.6777 13.0945 51.6699 19.1729C51.6621 25.2513 46.7155 30.1748 40.6163 30.1748C37.676 30.1791 34.8555 29.0141 32.7804 26.9381C30.7053 24.8622 29.5471 22.0469 29.5627 19.1167ZM45.9927 19.1167C45.9927 16.097 43.6025 13.584 40.6163 13.584C37.5863 13.584 35.2809 16.094 35.2809 19.1167C35.2809 22.1393 37.5863 24.6494 40.6163 24.6494C43.6025 24.645 45.9941 22.1364 45.9941 19.1167L45.9927 19.1167ZM78.055 8.48372H83.8609V10.8657C85.2255 9.11853 87.3161 8.05854 89.7486 8.05854C94.786 8.05854 97.8161 11.2908 97.8161 16.777V29.7497H91.8831V17.5428C91.8831 14.6934 90.5594 13.0293 87.9575 13.0293C85.7382 13.0293 83.9033 14.5595 83.9033 18.1252V29.7366H78.0594L78.055 8.48372ZM127.954 19.1167C127.954 11.5879 133.506 8.05134 138.327 8.05134C141.103 8.05134 143.278 9.07053 144.685 10.5614V8.48376H150.529V29.7497H144.685V27.3677C143.278 29.0261 141.015 30.1748 138.242 30.1748C133.718 30.1748 127.954 26.6078 127.954 19.1167ZM144.853 19.0745C144.853 15.9267 142.549 13.3744 139.391 13.3744C136.147 13.3744 133.673 15.7986 133.673 19.0745C133.673 22.3505 136.147 24.8154 139.391 24.8154C142.552 24.8154 144.856 22.2209 144.856 19.0745L144.853 19.0745ZM152.893 8.48376H158.697V10.8657C160.063 9.11858 162.154 8.05858 164.587 8.05858C169.623 8.05858 172.653 11.2909 172.653 16.777V29.7497H166.72V17.5428C166.72 14.6934 165.405 13.0293 162.794 13.0293C160.575 13.0293 158.74 14.5595 158.74 18.1252V29.7366H152.896L152.893 8.48376ZM108.332 29.7497V24.5606L119.555 13.6306H108.502V8.48376H127.408V13.7151L116.183 24.6028M23.3258 18.9318L23.2454 19.1007C21.6311 22.4917 18.6624 24.4369 15.1005 24.4369C9.93604 24.4369 5.89646 20.3689 5.89646 15.1769C5.89646 9.85235 9.90825 5.83826 15.2291 5.83826C18.677 5.83826 21.2965 7.44708 23.0161 10.6226L23.1081 10.7915L28.3121 7.47625L28.2244 7.33068C25.5216 2.74284 20.6624 0.00415039 15.2291 0.00415039C6.54657 0.00415039 0 6.52837 0 15.1798C0 23.9739 6.40486 30.3569 15.2291 30.3569C20.9166 30.3569 25.9409 27.2105 28.67 21.9413L28.7518 21.7826L23.3258 18.9318ZM53.1427 19.1168C53.1427 11.5879 58.6943 8.05134 63.5155 8.05134C66.2913 8.05134 68.4652 9.20009 69.8736 10.7726V8.48376H75.7175V29.1586C75.7175 35.1558 71.919 40.0042 64.7062 40.0042C59.286 40.0042 55.318 37.1956 53.6029 33.8789L58.7673 30.9873C59.8762 33.1989 61.8354 34.6025 64.6989 34.6025C67.8575 34.6025 69.8619 32.1361 69.8619 29.3712V27.3678C68.4536 29.0261 66.192 30.1748 63.4191 30.1748C58.9032 30.1748 53.1427 26.6078 53.1427 19.1168ZM70.0416 19.0745C70.0416 15.9267 67.7377 13.3744 64.5791 13.3744C61.3357 13.3744 58.8609 15.7986 58.8609 19.0745C58.8609 22.3505 61.3357 24.8154 64.5791 24.8154C67.7377 24.8154 70.0416 22.2208 70.0416 19.0745ZM187.052 13.7151V8.48376H183.04V1.46887H177.196V8.48376H173.566V13.7151H177.189V20.5203C177.189 27.4536 179.408 29.7497 186.194 29.7497H187.048V24.3058C183.462 24.3058 183.036 23.7948 183.036 20.4781V13.7151H187.052ZM188.292 4.00661C188.154 4.14554 187.989 4.25576 187.808 4.33094C187.626 4.40613 187.432 4.4448 187.236 4.44475C187.04 4.44481 186.845 4.40613 186.664 4.33095C186.483 4.25576 186.318 4.14554 186.18 4.00661C186.039 3.86977 185.927 3.70557 185.852 3.52406C185.776 3.34255 185.739 3.14756 185.741 2.95104C185.743 2.27834 186.197 1.69043 186.85 1.51749C187.502 1.34456 188.189 1.62975 188.526 2.21284C188.863 2.79594 188.764 3.53161 188.286 4.00661H188.292ZM186.329 2.04835C186.208 2.16572 186.112 2.30664 186.048 2.46241C185.983 2.61819 185.952 2.78549 185.955 2.954C185.952 3.12307 185.983 3.29094 186.047 3.44754C186.111 3.60415 186.206 3.74627 186.326 3.86537C186.445 3.98502 186.586 4.07995 186.742 4.14471C186.898 4.20947 187.066 4.24279 187.234 4.24274C187.576 4.24274 187.903 4.10689 188.143 3.86542C188.264 3.74686 188.36 3.60489 188.424 3.44818C188.488 3.29148 188.52 3.12331 188.517 2.95395C188.521 2.43444 188.209 1.96427 187.728 1.76531C187.246 1.5663 186.692 1.67827 186.326 2.04835H186.329ZM187.205 2.13129C187.357 2.12353 187.508 2.14328 187.652 2.18958C187.734 2.22175 187.802 2.27944 187.848 2.35399C187.894 2.42854 187.915 2.51594 187.906 2.60308C187.911 2.6662 187.898 2.72933 187.87 2.78608C187.842 2.84283 187.8 2.89119 187.747 2.92626C187.674 2.9681 187.594 2.99485 187.511 3.00491C187.566 3.0104 187.62 3.02751 187.668 3.0551C187.716 3.0827 187.758 3.12016 187.791 3.16506C187.846 3.23763 187.878 3.32575 187.88 3.41698V3.65864C187.881 3.68724 187.885 3.7157 187.893 3.74311L187.904 3.76346H187.633C187.633 3.75813 187.633 3.75277 187.633 3.74745V3.54801C187.643 3.47751 187.634 3.4057 187.607 3.33994C187.579 3.27419 187.535 3.21686 187.478 3.17383C187.377 3.1313 187.267 3.11334 187.157 3.1214H186.929V3.76346H186.637V2.13133L187.205 2.13129ZM187.516 2.38759C187.406 2.33995 187.287 2.31948 187.167 2.32791H186.92V2.91901H187.182C187.275 2.9234 187.368 2.91106 187.456 2.8826C187.502 2.86213 187.542 2.83014 187.572 2.78974C187.602 2.74934 187.621 2.7019 187.627 2.65206C187.633 2.60221 187.626 2.55165 187.606 2.5053C187.587 2.45895 187.556 2.4184 187.516 2.38759Z" fill="#0033A1"></path></svg>