<svg xmlns="http://www.w3.org/2000/svg" width="165" height="40" viewBox="0 0 185 40" fill="none"><g clip-path="url(#clip0_228_2589)"><path d="M175.035 32.34C175.035 29.6452 177.223 27.459 179.916 27.459C182.611 27.459 184.796 29.6452 184.796 32.34C184.796 35.0348 182.611 37.2198 179.916 37.2198C177.223 37.2198 175.035 35.0348 175.035 32.34Z" fill="#86BC24"></path><path d="M19.3683 19.4135C19.3683 16.3219 18.771 14.0281 17.5762 12.5338C16.3797 11.0411 14.5679 10.2953 12.1313 10.2953H9.53988V29.2012H11.5228C14.2288 29.2012 16.2117 28.3987 17.4745 26.7887C18.7356 25.1817 19.3683 22.7227 19.3683 19.4135ZM28.6108 19.0913C28.6108 24.7239 27.0969 29.0642 24.0686 32.1105C21.0406 35.1583 16.7839 36.6822 11.2966 36.6822H0.634766V2.93136H12.0411C17.3317 2.93136 21.4163 4.31701 24.2946 7.08663C27.1717 9.8577 28.6108 13.8575 28.6108 19.0917M58.1444 36.682H66.6283V2.78958H58.1444V36.682ZM78.5469 24.0399C78.5469 26.2008 78.8292 27.849 79.3931 28.9816C79.9579 30.1159 80.9041 30.6822 82.2344 30.6822C83.5508 30.6822 84.4816 30.1159 85.024 28.9816C85.5662 27.849 85.836 26.2008 85.836 24.0399C85.836 21.8902 85.562 20.2688 85.0127 19.1745C84.4618 18.0767 83.5225 17.5275 82.1907 17.5275C80.8885 17.5275 79.9579 18.0743 79.3928 19.1616C78.8294 20.2505 78.5469 21.8761 78.5469 24.0399ZM94.4711 24.0399C94.4711 28.1569 93.3921 31.3687 91.2283 33.6708C89.0661 35.9743 86.0394 37.1269 82.1483 37.1269C78.417 37.1269 75.4467 35.9489 73.242 33.593C71.0345 31.2373 69.9314 28.0538 69.9314 24.0401C69.9314 19.9356 71.0121 16.7464 73.1756 14.4726C75.3392 12.1986 78.3731 11.0618 82.2795 11.0618C84.6934 11.0618 86.8289 11.5887 88.679 12.6408C90.5306 13.6928 91.9601 15.2001 92.9642 17.1632C93.9698 19.1235 94.4711 21.4173 94.4711 24.0399ZM97.8405 36.682H106.326V11.5067H97.8405V36.682ZM97.8401 8.46146H106.326V2.78833H97.8401V8.46146ZM123.517 30.2608C124.662 30.2608 126.027 29.9698 127.618 29.3922V35.7267C126.474 36.2294 125.387 36.5895 124.353 36.8028C123.319 37.019 122.106 37.1263 120.718 37.1263C117.869 37.1263 115.815 36.4103 114.554 34.9807C113.298 33.5517 112.669 31.3569 112.669 28.3952V18.0169H109.697V11.509H112.669V5.07978L121.219 3.59269V11.5088H126.633V18.0171H121.219V27.816C121.219 29.4459 121.986 30.2608 123.517 30.2608ZM143.155 30.2608C144.301 30.2608 145.665 29.9698 147.257 29.3922V35.7267C146.114 36.2294 145.025 36.5895 143.991 36.8028C142.956 37.019 141.747 37.1263 140.356 37.1263C137.507 37.1263 135.454 36.4103 134.195 34.9807C132.937 33.5517 132.307 31.3569 132.307 28.3952V18.0169H129.334V11.509H132.307V4.98249L140.856 3.59269V11.5088H146.272V18.0171H140.856V27.816C140.856 29.4459 141.623 30.2608 143.155 30.2608ZM157.963 20.973C158.079 19.5946 158.473 18.5846 159.146 17.9393C159.821 17.2953 160.654 16.9732 161.651 16.9732C162.739 16.9732 163.603 17.3348 164.244 18.0634C164.89 18.788 165.226 19.7584 165.253 20.973H157.963ZM169.929 14.0298C167.912 12.0527 165.051 11.0625 161.349 11.0625C157.458 11.0625 154.463 12.1995 152.365 14.4733C150.267 16.7472 149.218 20.0096 149.218 24.2611C149.218 28.3779 150.352 31.5529 152.615 33.7816C154.879 36.0103 158.058 37.126 162.152 37.126C164.118 37.126 165.811 36.992 167.228 36.725C168.638 36.461 170.002 35.9834 171.326 35.2943L170.022 29.6207C169.06 30.0136 168.145 30.3157 167.281 30.5147C166.032 30.8045 164.662 30.9498 163.171 30.9498C161.535 30.9498 160.244 30.5502 159.298 29.7509C158.352 28.95 157.848 27.8455 157.79 26.4388H172.956V22.5732C172.956 18.8545 171.947 16.0057 169.929 14.0298ZM39.8714 20.973C39.9872 19.5946 40.3814 18.5846 41.0535 17.9393C41.7271 17.2953 42.5618 16.9732 43.5606 16.9732C44.6452 16.9732 45.5096 17.3348 46.1522 18.0634C46.7975 18.788 47.1322 19.7584 47.162 20.973H39.8714ZM51.8382 14.0298C49.82 12.0527 46.9599 11.0625 43.2568 11.0625C39.3643 11.0625 36.3716 12.1995 34.2742 14.4733C32.1769 16.7472 31.1262 20.0096 31.1262 24.2611C31.1262 28.3779 32.2588 31.5529 34.5243 33.7816C36.7868 36.0103 39.966 37.126 44.0605 37.126C46.0264 37.126 47.7185 36.992 49.1364 36.725C50.5459 36.461 51.9104 35.9834 53.2351 35.2943L51.9301 29.6207C50.9682 30.0136 50.053 30.3157 49.19 30.5147C47.9389 30.8045 46.5703 30.9498 45.0786 30.9498C43.4445 30.9498 42.1525 30.5502 41.2061 29.7509C40.2583 28.95 39.7556 27.8455 39.6978 26.4388H54.8636V22.5732C54.8636 18.8545 53.8553 16.0057 51.8382 14.0298Z" fill="#0F0B0B"></path></g><defs><clipPath id="clip0_228_2589"><rect width="184.162" height="40" fill="white" transform="translate(0.634766 0.00415039)"></rect></clipPath></defs></svg>