<svg xmlns="http://www.w3.org/2000/svg" width="155" height="40" viewBox="0 0 151 40" fill="none"><path d="M42.4714 0.138986C43.7161 -0.0488324 45.1483 -0.166229 46.2049 0.608574C46.8623 1.10152 47.0971 1.99372 47.0501 2.79223C47.0971 4.10704 46.4866 5.51589 45.3129 6.19692C44.2795 6.76046 43.0352 6.80717 41.8845 6.68986C41.1097 6.59608 40.3349 6.17356 39.9358 5.46909C39.0433 3.42628 40.1469 0.538153 42.4714 0.138986ZM5.23165 1.61826C5.30199 0.91379 5.93604 0.279827 6.66386 0.303444C12.088 0.303444 17.4884 0.326803 22.889 0.303444C23.476 0.256468 24.11 0.514623 24.3916 1.03119C24.7907 1.73566 24.4386 2.51046 24.3916 3.23846C24.2274 4.22444 24.2742 5.53951 23.1239 5.91506C19.1791 6.03246 15.2343 5.91506 11.2895 5.96204C10.9139 8.45082 10.5617 10.9162 10.1859 13.3817C10.1859 13.4756 10.2095 13.6871 10.2095 13.7807C13.0975 13.7574 15.9856 13.7807 18.8736 13.7574C19.672 13.7104 20.5172 14.3916 20.4467 15.2367C20.3764 16.1055 20.1885 16.9507 20.0712 17.8196C19.9771 18.4065 19.5076 18.9466 18.897 19.064C15.6802 19.1344 12.4163 18.9935 9.1998 19.1344C8.68306 22.6799 8.07254 26.2253 7.53245 29.771C7.4622 30.4754 6.89849 31.0859 6.19411 31.1091C4.85587 31.1328 3.51732 31.1328 2.17908 31.1091C1.31032 31.1328 0.605847 30.1698 0.840556 29.3481C2.27328 20.0973 3.75247 10.8696 5.23165 1.61826ZM29.0876 0.350163C30.3087 0.256383 31.553 0.326803 32.7741 0.303444C33.5256 0.256468 34.2769 0.843369 34.3472 1.61826C34.3472 2.2286 34.1828 2.8392 34.1125 3.44963C33.1262 9.74244 32.1166 16.0353 31.1303 22.328C30.9895 23.3376 30.7312 24.4176 31.0365 25.4508C31.3887 26.4839 32.9617 26.0377 33.3375 27.1177C33.5723 27.9866 33.3139 28.9022 33.2434 29.7946C33.1731 30.9686 31.8347 31.2267 30.9191 31.4854C28.9234 31.8609 26.5047 31.5792 25.0724 29.9353C24.0392 28.7381 23.9687 27.0473 24.1803 25.5448C25.4246 17.5615 26.669 9.57825 27.9371 1.57128C28.0076 0.984211 28.4771 0.444201 29.0876 0.350163ZM75.6961 1.61826C75.7664 0.91379 76.4005 0.303444 77.1049 0.303444H80.6739C81.5661 0.279827 82.2942 1.24262 82.0828 2.08776C81.261 7.30046 80.4158 12.5132 79.594 17.7255C80.8384 17.5378 82.2473 17.303 83.1161 16.2934C84.5717 14.6496 85.7694 12.7481 86.6615 10.7522C86.9667 9.97724 87.1311 8.85025 88.1408 8.70932C89.4792 8.66234 90.8409 8.68579 92.1794 8.70932C93.0952 8.68579 93.776 9.71891 93.4708 10.5641C93.1186 11.8089 92.5316 12.9592 91.9212 14.0629C90.5593 16.2701 89.0567 18.4536 87.0841 20.1911C87.9529 22.7974 89.0566 25.3333 90.0192 27.8928C90.3009 28.738 90.9821 29.7241 90.348 30.5461C89.6199 31.5322 88.2581 31.0389 87.2485 31.1563C86.1919 31.0389 84.6657 31.579 84.0786 30.3816C82.975 27.8221 82.0594 25.1926 80.9322 22.6331C80.2748 22.6564 79.5939 22.6801 78.9363 22.6097C78.8896 22.7036 78.7956 22.8913 78.7485 22.9854C78.3962 25.3333 78.0207 27.6814 77.6449 30.0293C77.504 30.5928 77.0578 31.086 76.4475 31.133C75.2031 31.18 73.9351 31.1563 72.6672 31.1563C72.127 31.1563 71.634 30.8042 71.3991 30.3346C71.1643 29.8648 71.3051 29.325 71.3759 28.8084C72.8314 19.745 74.2637 10.6815 75.6961 1.61826ZM140.948 4.17764C141.112 3.51997 141.746 3.074 142.404 3.09736C143.343 3.12097 144.306 3.074 145.268 3.12097C146.043 3.14433 146.654 3.91922 146.56 4.67058C146.419 6.00901 146.09 7.34744 145.996 8.68562C146.912 8.68562 147.851 8.66226 148.767 8.68562C149.589 8.68562 150.27 9.53101 150.129 10.3292C150.011 11.0573 149.847 11.7618 149.729 12.4894C149.612 13.1001 149.096 13.5931 148.509 13.687C147.382 13.7574 146.278 13.64 145.174 13.7574C144.705 16.9036 144.188 20.0499 143.695 23.1966C143.625 23.9244 143.578 24.7461 144 25.3801C144.634 26.155 145.738 25.8731 146.63 25.9672C147.335 26.1784 147.781 26.9534 147.663 27.658C147.546 28.4561 147.522 29.2545 147.335 30.0292C147.053 30.8979 146.043 31.0624 145.268 31.2736C143.132 31.8373 140.666 31.8373 138.764 30.5928C137.003 29.3952 136.721 27.0707 136.909 25.0983C137.402 21.2944 138.177 17.5142 138.6 13.6869C137.943 13.7102 137.144 13.8043 136.651 13.2172C136.088 12.6303 136.369 11.7615 136.463 11.0334C136.604 10.2586 136.581 9.24898 137.426 8.82629C138.107 8.56787 138.882 8.75595 139.61 8.66191C140.056 7.15945 140.478 5.65682 140.948 4.17764ZM127.682 11.7851C129.161 10.3058 130.945 9.08487 132.988 8.47452C133.88 8.07527 135.031 8.82671 135.007 9.81287C134.843 11.1043 134.538 12.3721 134.326 13.64C134.232 14.274 133.692 14.8141 133.058 14.8846C130.757 15.2836 128.762 16.6687 127.165 18.3125C126.766 18.8058 126.179 19.2753 126.108 19.9562C125.615 23.2434 125.099 26.5307 124.582 29.8179C124.512 30.5222 123.901 31.2034 123.173 31.1564H119.604C118.782 31.2034 118.055 30.3817 118.149 29.5597C119.182 23.0555 120.215 16.5752 121.224 10.0709C121.271 9.41361 121.741 8.77965 122.422 8.70915C123.291 8.66217 124.159 8.68562 125.052 8.68562C125.756 8.68562 126.413 9.31958 126.413 10.0476C126.413 11.0572 126.32 12.0902 126.296 13.1233C126.86 12.7714 127.212 12.2078 127.682 11.7851ZM39.9121 8.8031C41.18 8.54494 42.4949 8.75629 43.7628 8.6857C44.4908 8.59192 45.2656 9.06142 45.3829 9.78942C45.477 10.4467 45.2889 11.0808 45.2185 11.7148C44.2559 17.7494 43.293 23.7837 42.3539 29.8181C42.2834 30.4993 41.7202 31.1801 40.9921 31.1565C39.7243 31.1565 38.4562 31.1801 37.165 31.1332C36.3665 31.0391 35.7795 30.1236 35.9909 29.3485C37.0006 23.0795 37.9634 16.8336 38.973 10.5642C39.02 9.88329 39.2078 9.08487 39.9121 8.8031ZM115.894 9.10857C112.396 8.45091 108.827 7.98132 105.281 8.33351C102.111 8.73276 98.9181 10.1651 96.9694 12.7714C94.2691 16.1995 93.3533 20.8017 93.9636 25.0753C94.2925 27.1179 95.1846 29.1842 96.8519 30.4521C98.4015 31.6497 100.491 31.8139 102.37 31.5087C104.999 30.992 107.23 29.3018 109.062 27.4232C109.155 28.2214 108.968 29.0199 109.015 29.7948C109.062 30.5224 109.719 31.2034 110.447 31.1564H112.842C113.546 31.1564 114.133 30.4992 114.18 29.818C115.19 23.4549 116.2 17.1151 117.186 10.7756C117.327 9.97715 116.693 9.20235 115.894 9.10857ZM109.297 20.1677C108.357 21.9287 107.042 23.5254 105.563 24.887C104.718 25.5915 103.638 26.3195 102.487 26.0848C101.36 25.85 100.82 24.676 100.562 23.6662C99.9749 21.0365 100.515 18.1718 101.994 15.8943C102.651 14.8375 103.708 14.0393 104.929 13.7105C106.643 13.2878 108.451 13.4992 110.118 13.9687L110.212 14.0629C110.001 16.1055 109.602 18.1249 109.297 20.1677ZM69.8026 16.6457C69.779 14.2976 69.1451 11.8322 67.5016 10.0711C66.3746 8.82671 64.6839 8.19275 63.0403 8.21603C60.3165 8.12233 57.7572 9.46076 55.7615 11.2451C55.3151 11.5974 55.01 12.114 54.517 12.3957C54.517 11.6206 54.5874 10.8459 54.5638 10.0477C54.5874 9.31958 53.9064 8.6857 53.202 8.6857H50.8069C50.0557 8.6857 49.4451 9.34328 49.3981 10.071C47.9189 19.4632 46.4163 28.8553 44.937 38.2475C44.7258 39.1162 45.4772 40.0086 46.3694 39.985C47.6842 39.9616 49.0227 40.079 50.314 39.8909C51.3472 39.6091 51.3236 38.4116 51.4881 37.543C51.8636 35.4766 52.1221 33.4104 52.3568 31.3206C56.9825 32.2128 62.3595 31.6025 65.811 28.1038C68.6286 25.0281 69.9434 20.7781 69.8026 16.6457ZM63.2281 19.0171C63.0874 21.1773 62.3124 23.361 60.8098 24.934C58.861 26.7892 55.9022 26.5307 53.5073 25.897C53.4606 25.8264 53.3899 25.6854 53.3664 25.6152C53.7421 23.5724 53.93 21.506 54.3997 19.4867C55.7146 17.3267 57.3111 15.1428 59.5887 13.9455C60.434 13.5464 61.5845 13.6403 62.195 14.4151C63.2281 15.7065 63.3221 17.444 63.2281 19.0171Z" fill="#107BD4" stroke="#107BD4" stroke-width="0.101"></path></svg>