<svg xmlns="http://www.w3.org/2000/svg" width="110" height="40" viewBox="0 0 110 40" fill="none"><path fill-rule="evenodd" clip-rule="evenodd" d="M29.0047 10.1318L21.7989 15.2356L14.7203 10.2158L7.63216 15.2428L0.433594 10.139L14.7203 0.00341797L29.0047 10.1318Z" fill="#FF555F"></path><path fill-rule="evenodd" clip-rule="evenodd" d="M7.79293 25.0481V15.1789L0.433594 10.1687V30.0607L15.0371 40.0044V29.9816L7.79293 25.0481ZM15.0371 30.4831H22.0197V20.3283H15.0371V30.4831Z" fill="#25A5BD"></path><path fill-rule="evenodd" clip-rule="evenodd" d="M15.0352 40.0002L29.6363 30.1598V20.3193L15.0352 30.0854V40.0002Z" fill="#1E2C4C"></path><path fill-rule="evenodd" clip-rule="evenodd" d="M22.3057 25.405L15.0352 20.3108L22.2697 15.2478L29.6387 20.318L22.3057 25.405Z" fill="#FF555F"></path><path fill-rule="evenodd" clip-rule="evenodd" d="M44.3047 23.2351C45.8212 23.2351 47.0786 21.9394 47.0786 20.3149C47.0786 18.688 45.8212 17.3923 44.3047 17.3923C42.8122 17.3923 41.5525 18.688 41.5525 20.3125C41.5525 21.9394 42.8122 23.2351 44.3047 23.2351ZM41.874 25.5603C42.3203 26.4241 43.2177 27.0192 44.2423 27.0192C45.7348 27.0192 46.9298 25.7642 46.9298 24.2237V24.1206L46.8866 24.1014C46.0564 24.9028 44.9886 25.3971 43.7912 25.3971C41.2333 25.3971 39.1602 23.1128 39.1602 20.3149C39.1602 17.4979 41.2333 15.2351 43.7912 15.2351C44.9886 15.2351 46.054 15.7294 46.8866 16.5501L46.9298 16.5285V15.5015H49.3197V24.2237C49.3197 26.9808 47.2082 29.2004 44.3479 29.2004C42.4283 29.2004 40.763 28.2141 39.868 26.712L41.874 25.5603ZM57.5573 18.976L57.5813 18.9352C57.051 17.9898 56.1224 17.3515 55.045 17.3515C53.9268 17.3515 53.0606 17.949 52.4895 18.9352L52.5135 18.976H57.5573ZM57.2837 22.2873L58.9298 23.871C57.9796 24.8164 56.6503 25.3923 55.1914 25.3923C52.2783 25.3923 49.9556 23.1296 49.9556 20.3125C49.9534 19.644 50.0836 18.9817 50.3387 18.3637C50.5938 17.7458 50.9687 17.1845 51.4419 16.7122C51.915 16.2399 52.477 15.866 53.0955 15.6121C53.7139 15.3582 54.3765 15.2292 55.045 15.2327C55.712 15.2318 56.3726 15.3627 56.9888 15.6179C57.605 15.8732 58.1647 16.2477 58.6357 16.72C59.1067 17.1923 59.4796 17.7531 59.7331 18.37C59.9866 18.987 60.1156 19.6479 60.1128 20.3149C60.1128 20.7684 60.0696 20.8908 60.0696 20.8908H52.3191C52.3191 21.9586 53.6077 23.2135 55.0858 23.2135C55.952 23.2135 56.7127 22.844 57.2837 22.2897V22.2873ZM63.6953 20.4493V25.3923H61.3821V15.5063H63.6953V16.7108L63.7385 16.7348C64.5231 15.7414 65.5765 15.2327 66.6707 15.2327C70.8027 15.2327 70.9058 19.0768 70.9058 20.2597V25.3923H68.5927V20.4493C68.5927 19.2663 68.5687 17.4499 66.1764 17.4499C64.8134 17.4499 63.6953 18.7816 63.6953 20.4493ZM77.2022 17.4355C75.6665 17.4355 74.4331 18.7552 74.4331 20.3917C74.4331 22.0474 75.6689 23.3695 77.2022 23.3695C78.6899 23.3695 79.9496 22.0498 79.9496 20.3941C79.9496 18.7576 78.6923 17.4355 77.2022 17.4355ZM77.7133 25.5939C76.4991 25.5939 75.4577 25.1116 74.6035 24.2501L74.5603 24.2741V29.2004H72.1752V15.5063H74.5603V16.5333L74.6035 16.5573C75.4553 15.739 76.4991 15.2351 77.7133 15.2351C80.2688 15.2351 82.3348 17.5411 82.3348 20.4157C82.3348 23.2879 80.2688 25.5939 77.7133 25.5939ZM88.1104 23.2111C89.6269 23.2111 90.8651 21.937 90.8651 20.3125C90.8651 18.688 89.6269 17.3923 88.1128 17.3923C86.6179 17.3923 85.3582 18.688 85.3582 20.3125C85.3582 21.937 86.6155 23.2111 88.1104 23.2111ZM87.5993 15.2327C88.7943 15.2327 89.8621 15.727 90.6947 16.5501L90.7379 16.5261V15.4991H93.1254V25.1236H90.7355V24.1374L90.6947 24.0966C89.8621 24.898 88.7943 25.3923 87.5993 25.3923C85.039 25.3923 82.9682 23.1296 82.9682 20.3125C82.9682 17.4955 85.039 15.2327 87.5993 15.2327ZM103.285 23.871C102.799 24.3563 102.221 24.7406 101.586 25.0017C100.95 25.2628 100.27 25.3955 99.5825 25.3923C96.6983 25.3923 94.3972 23.1296 94.3972 20.3125C94.3972 17.4955 96.6983 15.2327 99.5825 15.2327C101.025 15.2327 102.342 15.8086 103.285 16.7564L101.632 18.2753C101.37 17.9942 101.053 17.7705 100.7 17.6185C100.347 17.4665 99.9666 17.3894 99.5825 17.3923C97.994 17.3923 96.7391 18.7072 96.7391 20.3125C96.7391 21.9154 97.994 23.2111 99.5825 23.2111C99.9745 23.2106 100.362 23.1301 100.722 22.9745C101.082 22.819 101.406 22.5917 101.675 22.3065L103.285 23.871ZM107.974 17.3395V24.7564H105.579V17.3419H103.918V15.1152H105.579V10.7888H107.974V15.1152H109.634V17.3395H107.974Z" fill="#25A5BD"></path></svg>