<svg width="152" height="46" viewBox="0 0 152 46" fill="none" xmlns="http://www.w3.org/2000/svg" alt="Google Play Store"><path d="M146.37 45.037H5.62963C2.47704 45.037 0 42.56 0 39.4074V5.62963C0 2.47704 2.47704 0 5.62963 0H146.37C149.523 0 152 2.47704 152 5.62963V39.4074C152 42.56 149.523 45.037 146.37 45.037Z" fill="black"></path><path d="M146.37 0.900741C148.96 0.900741 151.099 3.04 151.099 5.62963V39.4074C151.099 41.997 148.96 44.1363 146.37 44.1363H5.62963C3.04 44.1363 0.900741 41.997 0.900741 39.4074V5.62963C0.900741 3.04 3.04 0.900741 5.62963 0.900741H146.37ZM146.37 0H5.62963C2.47704 0 0 2.58963 0 5.62963V39.4074C0 42.56 2.47704 45.037 5.62963 45.037H146.37C149.523 45.037 152 42.56 152 39.4074V5.62963C152 2.58963 149.523 0 146.37 0Z" fill="#A6A6A6"></path><path d="M53.3708 11.4851C53.3708 12.3858 53.1456 13.174 52.5826 13.7369C51.9071 14.4125 51.1189 14.7503 50.1056 14.7503C49.0923 14.7503 48.3041 14.4125 47.6286 13.7369C46.953 13.0614 46.6152 12.2732 46.6152 11.2599C46.6152 10.2466 46.953 9.45842 47.6286 8.78286C48.3041 8.10731 49.0923 7.76953 50.1056 7.76953C50.556 7.76953 51.0063 7.88212 51.4567 8.10731C51.9071 8.33249 52.2449 8.55768 52.47 8.89546L51.9071 9.45842C51.4567 8.89546 50.8938 8.67027 50.1056 8.67027C49.43 8.67027 48.7545 8.89546 48.3041 9.45842C47.7412 9.90879 47.516 10.5843 47.516 11.3725C47.516 12.1606 47.7412 12.8362 48.3041 13.2866C48.8671 13.7369 49.43 14.0747 50.1056 14.0747C50.8938 14.0747 51.4567 13.8495 52.0197 13.2866C52.3575 12.9488 52.5826 12.4984 52.5826 11.9355H50.1056V11.0347H53.3708V11.4851ZM58.55 8.67027H55.51V10.8095H58.3249V11.5977H55.51V13.7369H58.55V14.6377H54.6093V7.88212H58.55V8.67027ZM62.2656 14.6377H61.3649V8.67027H59.4508V7.88212H64.1797V8.67027H62.2656V14.6377ZM67.4449 14.6377V7.88212H68.3456V14.6377H67.4449ZM72.1737 14.6377H71.273V8.67027H69.3589V7.88212H73.9752V8.67027H72.0612V14.6377H72.1737ZM82.87 13.7369C82.1945 14.4125 81.4063 14.7503 80.393 14.7503C79.3797 14.7503 78.5915 14.4125 77.916 13.7369C77.2404 13.0614 76.9026 12.2732 76.9026 11.2599C76.9026 10.2466 77.2404 9.45842 77.916 8.78286C78.5915 8.10731 79.3797 7.76953 80.393 7.76953C81.4063 7.76953 82.1945 8.10731 82.87 8.78286C83.5456 9.45842 83.8834 10.2466 83.8834 11.2599C83.8834 12.2732 83.5456 13.0614 82.87 13.7369ZM78.5915 13.174C79.0419 13.6243 79.7175 13.9621 80.393 13.9621C81.0686 13.9621 81.7441 13.7369 82.1945 13.174C82.6449 12.7236 82.9826 12.048 82.9826 11.2599C82.9826 10.4718 82.7575 9.7962 82.1945 9.34583C81.7441 8.89546 81.0686 8.55768 80.393 8.55768C79.7175 8.55768 79.0419 8.78286 78.5915 9.34583C78.1412 9.7962 77.8034 10.4718 77.8034 11.2599C77.8034 12.048 78.0286 12.7236 78.5915 13.174ZM85.1219 14.6377V7.88212H86.1352L89.4004 13.174V7.88212H90.3012V14.6377H89.4004L85.91 9.12064V14.6377H85.1219Z" fill="white"></path><path d="M76.6773 24.5458C73.9751 24.5458 71.8359 26.5724 71.8359 29.3872C71.8359 32.0895 73.9751 34.2287 76.6773 34.2287C79.3796 34.2287 81.5188 32.2021 81.5188 29.3872C81.5188 26.4598 79.3796 24.5458 76.6773 24.5458ZM76.6773 32.2021C75.2136 32.2021 73.9751 30.9635 73.9751 29.2746C73.9751 27.5858 75.2136 26.3472 76.6773 26.3472C78.141 26.3472 79.3796 27.4732 79.3796 29.2746C79.3796 30.9635 78.141 32.2021 76.6773 32.2021ZM66.2062 24.5458C63.504 24.5458 61.3648 26.5724 61.3648 29.3872C61.3648 32.0895 63.504 34.2287 66.2062 34.2287C68.9085 34.2287 71.0477 32.2021 71.0477 29.3872C71.0477 26.4598 68.9085 24.5458 66.2062 24.5458ZM66.2062 32.2021C64.7425 32.2021 63.504 30.9635 63.504 29.2746C63.504 27.5858 64.7425 26.3472 66.2062 26.3472C67.6699 26.3472 68.9085 27.4732 68.9085 29.2746C68.9085 30.9635 67.6699 32.2021 66.2062 32.2021ZM53.7085 26.0095V28.0361H58.5499C58.4373 29.1621 57.987 30.0628 57.424 30.6258C56.7485 31.3013 55.6225 32.0895 53.7085 32.0895C50.6685 32.0895 48.4166 29.725 48.4166 26.685C48.4166 23.645 50.7811 21.2806 53.7085 21.2806C55.2848 21.2806 56.5233 21.9561 57.424 22.7443L58.8877 21.2806C57.6492 20.1546 56.0729 19.2539 53.821 19.2539C49.7677 19.2539 46.2773 22.6317 46.2773 26.685C46.2773 30.7383 49.7677 34.1161 53.821 34.1161C56.0729 34.1161 57.6492 33.4406 59.0003 31.9769C60.3514 30.6258 60.8018 28.7117 60.8018 27.248C60.8018 26.7976 60.8018 26.3472 60.6892 26.0095H53.7085ZM104.825 27.5858C104.375 26.4598 103.249 24.5458 100.772 24.5458C98.2951 24.5458 96.2685 26.4598 96.2685 29.3872C96.2685 32.0895 98.2951 34.2287 100.997 34.2287C103.137 34.2287 104.488 32.8776 104.938 32.0895L103.362 30.9635C102.799 31.7517 102.123 32.3146 100.997 32.3146C99.8714 32.3146 99.1959 31.8643 98.6329 30.8509L105.051 28.1487L104.825 27.5858ZM98.2951 29.1621C98.2951 27.3606 99.7588 26.3472 100.772 26.3472C101.56 26.3472 102.348 26.7976 102.574 27.3606L98.2951 29.1621ZM93.0033 33.7783H95.1425V19.7043H93.0033V33.7783ZM89.6255 25.5591C89.0625 24.9961 88.1618 24.4332 87.0359 24.4332C84.6714 24.4332 82.4196 26.5724 82.4196 29.2746C82.4196 31.9769 84.5588 34.0035 87.0359 34.0035C88.1618 34.0035 89.0625 33.4406 89.5129 32.8776H89.6255V33.5532C89.6255 35.3546 88.6122 36.368 87.0359 36.368C85.7973 36.368 84.8966 35.4672 84.6714 34.6791L82.8699 35.4672C83.4329 36.7058 84.784 38.2821 87.1485 38.2821C89.6255 38.2821 91.6522 36.8183 91.6522 33.328V24.7709H89.6255V25.5591ZM87.1485 32.2021C85.6848 32.2021 84.4462 30.9635 84.4462 29.2746C84.4462 27.5858 85.6848 26.3472 87.1485 26.3472C88.6122 26.3472 89.7381 27.5858 89.7381 29.2746C89.7381 30.9635 88.6122 32.2021 87.1485 32.2021ZM114.621 19.7043H109.554V33.7783H111.694V28.4865H114.621C116.985 28.4865 119.237 26.7976 119.237 24.0954C119.237 21.3932 116.985 19.7043 114.621 19.7043ZM114.734 26.4598H111.694V21.6184H114.734C116.31 21.6184 117.211 22.9695 117.211 23.9828C117.098 25.2213 116.197 26.4598 114.734 26.4598ZM127.682 24.4332C126.105 24.4332 124.529 25.1087 123.966 26.5724L125.88 27.3606C126.331 26.5724 127.006 26.3472 127.794 26.3472C128.92 26.3472 129.934 27.0228 130.046 28.1487V28.2613C129.708 28.0361 128.808 27.6983 127.907 27.6983C125.88 27.6983 123.854 28.8243 123.854 30.8509C123.854 32.765 125.543 34.0035 127.344 34.0035C128.808 34.0035 129.483 33.328 130.046 32.6524H130.159V33.7783H132.185V28.3739C131.96 25.8969 130.046 24.4332 127.682 24.4332ZM127.457 32.2021C126.781 32.2021 125.768 31.8643 125.768 30.9635C125.768 29.8376 127.006 29.4998 128.02 29.4998C128.92 29.4998 129.371 29.725 129.934 29.9502C129.708 31.3013 128.583 32.2021 127.457 32.2021ZM139.279 24.7709L136.914 30.8509H136.802L134.325 24.7709H132.073L135.788 33.328L133.649 38.0569H135.788L141.531 24.7709H139.279ZM120.363 33.7783H122.503V19.7043H120.363V33.7783Z" fill="white"></path><path d="M11.7082 8.44336C11.3704 8.78114 11.2578 9.3441 11.2578 10.0197V34.9026C11.2578 35.5782 11.483 36.1411 11.8208 36.4789L11.9334 36.5915L25.8948 22.63V22.4048L11.7082 8.44336Z" fill="url(#paint0_linear_3326_1142)"></path><path d="M30.3975 27.3594L25.7812 22.7431V22.4054L30.3975 17.7891L30.5101 17.9017L36.0272 21.0542C37.6035 21.955 37.6035 23.4187 36.0272 24.3194L30.3975 27.3594Z" fill="url(#paint1_linear_3326_1142)"></path><path d="M30.5119 27.2484L25.7831 22.5195L11.709 36.5936C12.2719 37.1566 13.0601 37.1566 14.0734 36.7062L30.5119 27.2484Z" fill="url(#paint2_linear_3326_1142)"></path><path d="M30.5119 17.7895L14.0734 8.44434C13.0601 7.88138 12.2719 7.99397 11.709 8.55693L25.7831 22.5184L30.5119 17.7895Z" fill="url(#paint3_linear_3326_1142)"></path><path opacity="0.2" d="M30.3994 27.1348L14.0734 36.3674C13.1727 36.9303 12.3845 36.8177 11.8216 36.3674L11.709 36.48L11.8216 36.5925C12.3845 37.0429 13.1727 37.1555 14.0734 36.5925L30.3994 27.1348Z" fill="black"></path><path opacity="0.12" d="M11.7082 36.3684C11.3704 36.0306 11.2578 35.4677 11.2578 34.7921V34.9047C11.2578 35.5803 11.483 36.1432 11.8208 36.481V36.3684H11.7082ZM36.0282 23.9832L30.3986 27.1358L30.5111 27.2484L36.0282 24.0958C36.8163 23.6455 37.1541 23.0825 37.1541 22.5195C37.1541 23.0825 36.7037 23.5329 36.0282 23.9832Z" fill="black"></path><path opacity="0.25" d="M14.0726 8.5567L36.0282 21.0545C36.7037 21.5049 37.1541 21.9552 37.1541 22.5182C37.1541 21.9552 36.8163 21.3923 36.0282 20.9419L14.0726 8.44411C12.4963 7.54337 11.2578 8.21893 11.2578 10.0204V10.133C11.2578 8.44411 12.4963 7.65596 14.0726 8.5567Z" fill="white"></path><defs><linearGradient id="paint0_linear_3326_1142" x1="24.5437" y1="9.80573" x2="5.64732" y2="28.701" gradientUnits="userSpaceOnUse"><stop stop-color="#00A0FF"></stop><stop offset="0.007" stop-color="#00A1FF"></stop><stop offset="0.26" stop-color="#00BEFF"></stop><stop offset="0.512" stop-color="#00D2FF"></stop><stop offset="0.76" stop-color="#00DFFF"></stop><stop offset="1" stop-color="#00E3FF"></stop></linearGradient><linearGradient id="paint1_linear_3326_1142" x1="38.0921" y1="22.5191" x2="10.8481" y2="22.5191" gradientUnits="userSpaceOnUse"><stop stop-color="#FFE000"></stop><stop offset="0.409" stop-color="#FFBD00"></stop><stop offset="0.775" stop-color="#FFA500"></stop><stop offset="1" stop-color="#FF9C00"></stop></linearGradient><linearGradient id="paint2_linear_3326_1142" x1="27.9527" y1="25.1047" x2="2.3289" y2="50.7285" gradientUnits="userSpaceOnUse"><stop stop-color="#FF3A44"></stop><stop offset="1" stop-color="#C31162"></stop></linearGradient><linearGradient id="paint3_linear_3326_1142" x1="8.21524" y1="0.198058" x2="19.658" y2="11.6408" gradientUnits="userSpaceOnUse"><stop stop-color="#32A071"></stop><stop offset="0.069" stop-color="#2DA771"></stop><stop offset="0.476" stop-color="#15CF74"></stop><stop offset="0.801" stop-color="#06E775"></stop><stop offset="1" stop-color="#00F076"></stop></linearGradient></defs></svg>