<svg xmlns="http://www.w3.org/2000/svg" width="212" height="40" viewBox="0 0 232 40" fill="none"><g clip-path="url(#clip0_228_2573)"><path d="M0.486328 0.760254H231.433V39.2482H0.486328V0.760254Z" fill="#004C8F"></path><path d="M38.9785 0.760254H231.433V39.2482H38.9785V0.760254Z" fill="#004C8F"></path><path d="M51.2188 29.1092V10.8984H57.2099V17.0448H62.8239V10.8984H68.824V29.1092H62.8239V22.0435H57.2099V29.1092H51.2188ZM78.305 15.4233H79.8581C80.976 15.4233 81.794 15.5391 82.3168 15.7716C82.7037 15.9405 83.0182 16.193 83.294 16.5703C83.5458 16.9426 83.7493 17.4123 83.8989 18.0027C84.0348 18.5882 84.1072 19.2075 84.1072 19.8606C84.1072 20.9255 83.9624 21.8159 83.6471 22.5373C83.3423 23.258 82.9023 23.7759 82.3361 24.0952C81.7699 24.4202 80.9278 24.5746 79.8146 24.5746L78.305 24.5842V15.4233ZM80.6181 29.1092C82.0313 29.1092 83.2023 28.9934 84.1603 28.7368C85.1238 28.4899 85.9072 28.1609 86.5072 27.7685C87.1176 27.3663 87.6686 26.825 88.1769 26.1518C88.6804 25.4553 89.1211 24.5794 89.4638 23.5057C89.8177 22.436 89.9866 21.2303 89.9866 19.8663C89.9866 17.8628 89.6045 16.1689 88.8308 14.7558C88.0466 13.3716 86.9817 12.3694 85.6217 11.7799C84.2672 11.1887 82.6506 10.8984 80.7726 10.8984H72.4441V29.1092H80.6181ZM92.7316 29.1092V10.8984H106.939V15.3895H98.6448V18.3075H105.28V22.6773H98.6448V29.1092H92.7316ZM127.003 17.8628H121.347C121.24 16.9571 120.911 16.2413 120.364 15.7282C119.812 15.2247 119.121 14.9777 118.269 14.9777C117.209 14.9777 116.347 15.3895 115.685 16.2027C115.017 17.0255 114.682 18.3558 114.682 20.1856C114.682 21.4628 114.833 22.4215 115.109 23.0746C115.394 23.747 115.796 24.2312 116.294 24.5553C116.807 24.8794 117.432 25.0298 118.2 25.0298C119.121 25.0298 119.856 24.7966 120.393 24.2649C120.945 23.7663 121.264 23.0215 121.371 22.0242H127.13C127.003 23.1566 126.776 24.1049 126.447 24.8794C126.133 25.6491 125.571 26.414 124.812 27.1829C124.032 27.9686 123.095 28.5807 122.063 28.9789C121.003 29.3996 119.778 29.5982 118.375 29.5982C116.992 29.5982 115.699 29.3996 114.533 28.9934C113.352 28.5768 112.355 27.9864 111.561 27.2457C110.753 26.4768 110.124 25.6154 109.674 24.6422C109.025 23.2732 108.72 21.7676 108.72 20.0882C108.72 18.6847 108.948 17.3536 109.408 16.1351C109.867 14.9247 110.502 13.8944 111.309 13.0619C112.122 12.2335 113.008 11.6142 113.996 11.1984C115.244 10.6659 116.618 10.4102 118.143 10.4102C119.469 10.4102 120.698 10.6032 121.859 10.9949C123.016 11.3874 123.965 11.9584 124.705 12.7185C125.45 13.4686 126.037 14.3601 126.432 15.3405C126.723 16.033 126.907 16.8703 127.003 17.8628ZM146.192 14.9979C147.039 14.9979 147.586 15.0365 147.857 15.1137C148.191 15.2086 148.486 15.4048 148.703 15.6751C148.916 15.9461 149.028 16.2606 149.028 16.6241C149.028 17.0882 148.844 17.4703 148.491 17.7606C148.113 18.0662 147.47 18.2062 146.545 18.2062H144.29V14.9971L146.192 14.9979ZM147.696 29.1092C149.115 29.1092 150.112 29.0417 150.697 28.9162C151.309 28.7668 151.904 28.5558 152.474 28.2864C153.064 27.9768 153.519 27.6864 153.819 27.3671C154.284 26.936 154.627 26.414 154.879 25.7843C155.13 25.1505 155.257 24.4346 155.257 23.6649C155.257 22.5663 154.985 21.6614 154.434 20.9255C153.882 20.1856 153.141 19.6965 152.208 19.4303C153.79 18.433 154.579 17.1461 154.579 15.5778C154.579 13.9571 153.882 12.7185 152.503 11.8764C151.438 11.2273 149.778 10.8984 147.527 10.8984H138.493V29.1092H147.696ZM146.734 21.4821C147.92 21.4821 148.689 21.6269 149.077 21.9325C149.434 22.2277 149.628 22.6338 149.628 23.1808C149.628 23.7325 149.434 24.1684 149.043 24.4733C148.67 24.7974 147.891 24.9325 146.734 24.9325H144.29V21.4821H146.734ZM168.415 22.9877H164.606L166.484 16.3619L168.415 22.9877ZM162.815 29.1092L163.507 26.7188H169.469L170.167 29.1092H176.124L169.591 10.8984H163.507L156.969 29.1092H162.815ZM178.64 29.1092V10.8984H184.22L190.516 20.6496V10.8984H196.256V29.1092H190.555L184.394 19.6V29.1092H178.64ZM200.248 29.1092V10.8984H206.051V16.904L211.466 10.8984H218.502L211.829 17.7558L219.195 29.1092H212.023L207.643 21.8545L206.05 23.4277V29.1092H200.248Z" fill="white"></path><path d="M0.486328 0.760254H38.9743V39.2482H0.486328V0.760254Z" fill="#ED232A"></path><path d="M7.22266 7.49634H32.2427V32.5163H7.22266V7.49634Z" fill="white"></path><path d="M17.8066 0.760254H21.6544V39.2482H17.8066V0.760254Z" fill="white"></path><path d="M0.486328 18.0847H38.9743V21.9325H0.486328V18.0847Z" fill="white"></path><path d="M13.959 14.2322H25.5054V25.7794H13.959V14.2322Z" fill="#004C8F"></path></g><defs><clipPath id="clip0_228_2573"><rect width="230.947" height="40" fill="white" transform="translate(0.486328 0.00415039)"></rect></clipPath></defs></svg>