<svg width="183px" height="40px" viewBox="0 0 183 40" fill="none" xmlns="http://www.w3.org/2000/svg"><path d="M0.353988 31.2926C0.283191 31.7173 0.212393 32.3545 0.566381 33.3456C1.69914 36.3896 5.30982 38.1594 6.0886 38.5134C9.0621 39.9292 11.7524 40 12.956 40C13.5224 40 15.7879 40 18.6198 39.0797C19.6818 38.7257 21.2393 38.2302 22.8676 37.0267C24.4252 35.8941 25.0624 34.8322 25.2748 34.549C25.2748 34.549 25.2748 34.549 25.2748 34.4782C25.4872 34.1243 26.1951 32.9916 25.9827 31.5758C25.9827 31.3634 25.6996 30.0183 24.5668 29.1688C24.5668 29.1688 22.6553 27.8946 20.5313 29.0272C20.4605 29.0272 20.3897 29.098 20.3897 29.098C20.2481 29.2396 20.1065 29.3104 20.1065 29.3104C19.8941 29.5228 19.1154 30.2307 19.0446 30.3015C19.0446 30.3015 18.549 30.7263 17.2746 31.5758C17.133 31.6466 16.9914 31.7881 16.9914 31.7881L16.9206 31.8589C16.5667 32.0713 15.8587 32.4253 15.0091 32.6376C14.3719 32.7792 13.0268 33.204 11.3276 32.7792C9.91167 32.4961 8.92051 31.7881 8.49572 31.505C7.85854 31.0802 7.78774 30.8678 6.37179 29.7352C5.30982 28.8857 5.09743 28.7441 4.74344 28.6733C3.46908 28.2485 2.26553 28.8857 2.12393 29.0272C1.98233 28.9565 0.637179 29.7352 0.353988 31.2926Z" fill="#297BCA"></path><path d="M25.2748 12.8857C25.2748 9.48765 25.3456 6.01884 25.3456 2.62083C25.2748 2.33766 25.1332 1.9837 24.7792 1.55895C24.5668 1.20499 24.0004 0.497068 23.0092 0.143108C22.7968 0.0723165 22.0181 -0.140059 21.1685 0.143108C20.0357 0.497068 19.5402 1.48816 19.3986 1.70053C19.1862 2.05449 19.1154 2.40845 19.1154 2.62083C19.1154 2.76241 19.1154 2.904 19.1154 3.04558C17.2038 1.91291 15.0091 1.20499 12.602 1.20499C5.66381 1.27578 0 6.93914 0 13.9475C0 20.956 5.66381 26.5485 12.602 26.5485C19.5402 26.5485 25.204 20.8852 25.204 13.9475C25.2748 13.5936 25.204 13.2396 25.2748 12.8857ZM12.602 19.6109C9.41609 19.6109 6.93817 17.0624 6.93817 13.8768C6.93817 10.6911 9.48689 8.1426 12.6728 8.1426C15.8587 8.1426 18.4074 10.6911 18.4074 13.8768C18.4074 17.0624 15.7879 19.6109 12.602 19.6109Z" fill="#297BCA"></path><path d="M44.4512 11.2965C45.4989 11.2965 46.4198 11.5077 47.214 11.9301C48.0082 12.3356 48.6335 12.8678 49.0897 13.5268V11.5246H52.6636V25.667C52.6636 26.968 52.4017 28.1254 51.8779 29.1392C51.354 30.1699 50.5683 30.9809 49.5206 31.5723C48.4729 32.1806 47.2056 32.4847 45.7186 32.4847C43.7246 32.4847 42.0855 32.0201 40.8013 31.0908C39.5339 30.1615 38.8158 28.8942 38.6468 27.289H42.17C42.3559 27.9311 42.753 28.438 43.3613 28.8097C43.9865 29.1983 44.7385 29.3927 45.6172 29.3927C46.648 29.3927 47.4844 29.0801 48.1265 28.4549C48.7686 27.8466 49.0897 26.9173 49.0897 25.667V23.4873C48.6335 24.1463 47.9998 24.6954 47.1887 25.1347C46.3945 25.574 45.482 25.7937 44.4512 25.7937C43.2684 25.7937 42.1869 25.4896 41.2068 24.8813C40.2268 24.273 39.4495 23.4197 38.8749 22.3214C38.3173 21.2063 38.0385 19.9306 38.0385 18.4944C38.0385 17.0751 38.3173 15.8163 38.8749 14.718C39.4495 13.6197 40.2183 12.7749 41.1815 12.1835C42.1616 11.5921 43.2515 11.2965 44.4512 11.2965ZM49.0897 18.5451C49.0897 17.6833 48.9207 16.9483 48.5828 16.3401C48.2448 15.7149 47.7886 15.2418 47.214 14.9208C46.6395 14.5828 46.0227 14.4139 45.3637 14.4139C44.7047 14.4139 44.0964 14.5744 43.5387 14.8954C42.9811 15.2165 42.5249 15.6896 42.17 16.3147C41.8321 16.923 41.6631 17.6496 41.6631 18.4944C41.6631 19.3392 41.8321 20.0827 42.17 20.7247C42.5249 21.3499 42.9811 21.8314 43.5387 22.1694C44.1133 22.5073 44.7216 22.6763 45.3637 22.6763C46.0227 22.6763 46.6395 22.5158 47.214 22.1947C47.7886 21.8568 48.2448 21.3837 48.5828 20.7754C48.9207 20.1502 49.0897 19.4068 49.0897 18.5451Z" fill="#297BCA"></path><path d="M62.3647 25.7937C61.0129 25.7937 59.7962 25.498 58.7148 24.9066C57.6333 24.2983 56.78 23.4451 56.1547 22.3468C55.5464 21.2485 55.2423 19.9813 55.2423 18.5451C55.2423 17.1089 55.5549 15.8416 56.1801 14.7434C56.8222 13.6451 57.6925 12.8002 58.7908 12.2089C59.8892 11.6006 61.1143 11.2965 62.4661 11.2965C63.8179 11.2965 65.043 11.6006 66.1414 12.2089C67.2398 12.8002 68.1016 13.6451 68.7268 14.7434C69.3689 15.8416 69.69 17.1089 69.69 18.5451C69.69 19.9813 69.3605 21.2485 68.7014 22.3468C68.0593 23.4451 67.1806 24.2983 66.0654 24.9066C64.967 25.498 63.7335 25.7937 62.3647 25.7937ZM62.3647 22.7016C63.0068 22.7016 63.6067 22.5496 64.1644 22.2454C64.7389 21.9244 65.1951 21.4513 65.5331 20.8261C65.871 20.2009 66.04 19.4406 66.04 18.5451C66.04 17.2102 65.6852 16.188 64.9755 15.4783C64.2826 14.7518 63.4293 14.3885 62.4154 14.3885C61.4015 14.3885 60.5482 14.7518 59.8554 15.4783C59.1795 16.188 58.8415 17.2102 58.8415 18.5451C58.8415 19.8799 59.171 20.9106 59.83 21.6371C60.506 22.3468 61.3509 22.7016 62.3647 22.7016Z" fill="#297BCA"></path><path d="M78.5283 25.7937C77.1765 25.7937 75.9598 25.498 74.8784 24.9066C73.7969 24.2983 72.9435 23.4451 72.3183 22.3468C71.71 21.2485 71.4058 19.9813 71.4058 18.5451C71.4058 17.1089 71.7184 15.8416 72.3437 14.7434C72.9858 13.6451 73.856 12.8002 74.9544 12.2089C76.0528 11.6006 77.2778 11.2965 78.6297 11.2965C79.9815 11.2965 81.2066 11.6006 82.305 12.2089C83.4033 12.8002 84.2651 13.6451 84.8904 14.7434C85.5325 15.8416 85.8535 17.1089 85.8535 18.5451C85.8535 19.9813 85.524 21.2485 84.865 22.3468C84.2229 23.4451 83.3442 24.2983 82.2289 24.9066C81.1306 25.498 79.897 25.7937 78.5283 25.7937ZM78.5283 22.7016C79.1704 22.7016 79.7703 22.5496 80.3279 22.2454C80.9025 21.9244 81.3587 21.4513 81.6967 20.8261C82.0346 20.2009 82.2036 19.4406 82.2036 18.5451C82.2036 17.2102 81.8487 16.188 81.139 15.4783C80.4462 14.7518 79.5929 14.3885 78.579 14.3885C77.5651 14.3885 76.7118 14.7518 76.019 15.4783C75.343 16.188 75.0051 17.2102 75.0051 18.5451C75.0051 19.8799 75.3346 20.9106 75.9936 21.6371C76.6695 22.3468 77.5144 22.7016 78.5283 22.7016Z" fill="#297BCA"></path><path d="M87.5441 18.4944C87.5441 17.0751 87.8229 15.8163 88.3805 14.718C88.955 13.6197 89.7323 12.7749 90.7124 12.1835C91.6925 11.5921 92.7824 11.2965 93.9822 11.2965C94.8946 11.2965 95.7649 11.4992 96.5929 11.9047C97.4209 12.2933 98.0799 12.8171 98.5699 13.4761V6.81042H102.169V25.5656H98.5699V23.4873C98.1306 24.1801 97.5138 24.7377 96.7196 25.1601C95.9254 25.5825 95.0045 25.7937 93.9568 25.7937C92.774 25.7937 91.6925 25.4896 90.7124 24.8813C89.7323 24.273 88.955 23.4197 88.3805 22.3214C87.8229 21.2063 87.5441 19.9306 87.5441 18.4944ZM98.5953 18.5451C98.5953 17.6833 98.4263 16.9483 98.0883 16.3401C97.7504 15.7149 97.2941 15.2418 96.7196 14.9208C96.1451 14.5828 95.5283 14.4139 94.8693 14.4139C94.2103 14.4139 93.602 14.5744 93.0443 14.8954C92.4867 15.2165 92.0304 15.6896 91.6756 16.3147C91.3376 16.923 91.1687 17.6496 91.1687 18.4944C91.1687 19.3392 91.3376 20.0827 91.6756 20.7247C92.0304 21.3499 92.4867 21.8314 93.0443 22.1694C93.6188 22.5073 94.2272 22.6763 94.8693 22.6763C95.5283 22.6763 96.1451 22.5158 96.7196 22.1947C97.2941 21.8568 97.7504 21.3837 98.0883 20.7754C98.4263 20.1502 98.5953 19.4068 98.5953 18.5451Z" fill="#297BCA"></path><path d="M111.009 25.7937C109.859 25.7937 108.829 25.5909 107.916 25.1854C107.004 24.763 106.277 24.197 105.736 23.4873C105.213 22.7777 104.925 21.992 104.875 21.1302H108.448C108.516 21.6709 108.778 22.1187 109.234 22.4735C109.707 22.8283 110.29 23.0058 110.983 23.0058C111.659 23.0058 112.183 22.8706 112.555 22.6002C112.943 22.3299 113.138 21.9835 113.138 21.5611C113.138 21.1049 112.901 20.767 112.428 20.5473C111.972 20.3108 111.237 20.0573 110.223 19.787C109.175 19.5335 108.313 19.2716 107.637 19.0013C106.978 18.7309 106.404 18.317 105.914 17.7594C105.441 17.2018 105.204 16.4499 105.204 15.5037C105.204 14.7265 105.424 14.0168 105.863 13.3747C106.319 12.7327 106.961 12.2258 107.789 11.854C108.634 11.4823 109.623 11.2965 110.755 11.2965C112.428 11.2965 113.763 11.7189 114.76 12.5637C115.757 13.3916 116.306 14.5152 116.407 15.9346H113.011C112.96 15.377 112.724 14.9377 112.301 14.6166C111.896 14.2787 111.346 14.1097 110.654 14.1097C110.012 14.1097 109.513 14.228 109.158 14.4646C108.82 14.7011 108.651 15.0306 108.651 15.453C108.651 15.9261 108.888 16.2894 109.361 16.5428C109.834 16.7794 110.569 17.0244 111.566 17.2778C112.58 17.5313 113.416 17.7932 114.075 18.0635C114.734 18.3339 115.301 18.7563 115.774 19.3308C116.264 19.8883 116.517 20.6318 116.534 21.5611C116.534 22.3721 116.306 23.0987 115.85 23.7408C115.41 24.3828 114.768 24.8897 113.923 25.2615C113.095 25.6163 112.124 25.7937 111.009 25.7937Z" fill="#297BCA"></path><path d="M122.996 13.5521C123.452 12.9101 124.077 12.3778 124.871 11.9554C125.682 11.5161 126.603 11.2965 127.634 11.2965C128.834 11.2965 129.915 11.5921 130.878 12.1835C131.859 12.7749 132.627 13.6197 133.185 14.718C133.76 15.7994 134.047 17.0582 134.047 18.4944C134.047 19.9306 133.76 21.2063 133.185 22.3214C132.627 23.4197 131.859 24.273 130.878 24.8813C129.915 25.4896 128.834 25.7937 127.634 25.7937C126.603 25.7937 125.691 25.5825 124.897 25.1601C124.119 24.7377 123.486 24.2054 122.996 23.5633V32.2566H119.447V11.5246H122.996V13.5521ZM130.422 18.4944C130.422 17.6496 130.245 16.923 129.89 16.3147C129.552 15.6896 129.096 15.2165 128.521 14.8954C127.964 14.5744 127.355 14.4139 126.696 14.4139C126.054 14.4139 125.446 14.5828 124.871 14.9208C124.314 15.2418 123.857 15.7149 123.503 16.3401C123.165 16.9652 122.996 17.7002 122.996 18.5451C122.996 19.3899 123.165 20.1249 123.503 20.7501C123.857 21.3752 124.314 21.8568 124.871 22.1947C125.446 22.5158 126.054 22.6763 126.696 22.6763C127.355 22.6763 127.964 22.5073 128.521 22.1694C129.096 21.8314 129.552 21.3499 129.89 20.7247C130.245 20.0996 130.422 19.3561 130.422 18.4944Z" fill="#297BCA"></path><path d="M135.713 18.4944C135.713 17.0751 135.992 15.8163 136.549 14.718C137.124 13.6197 137.893 12.7749 138.856 12.1835C139.836 11.5921 140.926 11.2965 142.126 11.2965C143.173 11.2965 144.086 11.5077 144.863 11.9301C145.657 12.3525 146.291 12.8847 146.764 13.5268V11.5246H150.338V25.5656H146.764V23.5127C146.308 24.1716 145.674 24.7208 144.863 25.1601C144.069 25.5825 143.148 25.7937 142.1 25.7937C140.918 25.7937 139.836 25.4896 138.856 24.8813C137.893 24.273 137.124 23.4197 136.549 22.3214C135.992 21.2063 135.713 19.9306 135.713 18.4944ZM146.764 18.5451C146.764 17.6833 146.595 16.9483 146.257 16.3401C145.919 15.7149 145.463 15.2418 144.889 14.9208C144.314 14.5828 143.697 14.4139 143.038 14.4139C142.379 14.4139 141.771 14.5744 141.213 14.8954C140.656 15.2165 140.199 15.6896 139.845 16.3147C139.507 16.923 139.338 17.6496 139.338 18.4944C139.338 19.3392 139.507 20.0827 139.845 20.7247C140.199 21.3499 140.656 21.8314 141.213 22.1694C141.788 22.5073 142.396 22.6763 143.038 22.6763C143.697 22.6763 144.314 22.5158 144.889 22.1947C145.463 21.8568 145.919 21.3837 146.257 20.7754C146.595 20.1502 146.764 19.4068 146.764 18.5451Z" fill="#297BCA"></path><path d="M152.891 18.5451C152.891 17.092 153.187 15.8247 153.779 14.7434C154.37 13.6451 155.19 12.8002 156.237 12.2089C157.285 11.6006 158.485 11.2965 159.836 11.2965C161.577 11.2965 163.013 11.7358 164.145 12.6144C165.294 13.4761 166.063 14.6927 166.452 16.264H162.625C162.422 15.6558 162.075 15.1827 161.585 14.8447C161.112 14.4899 160.521 14.3125 159.811 14.3125C158.797 14.3125 157.995 14.6842 157.403 15.4277C156.812 16.1542 156.516 17.1933 156.516 18.5451C156.516 19.8799 156.812 20.919 157.403 21.6625C157.995 22.389 158.797 22.7523 159.811 22.7523C161.247 22.7523 162.185 22.1102 162.625 20.8261H166.452C166.063 22.3468 165.294 23.5549 164.145 24.4504C162.996 25.3459 161.56 25.7937 159.836 25.7937C158.485 25.7937 157.285 25.498 156.237 24.9066C155.19 24.2983 154.37 23.4535 153.779 22.3721C153.187 21.2739 152.891 19.9982 152.891 18.5451Z" fill="#297BCA"></path><path d="M182.105 18.2409C182.105 18.7478 182.071 19.204 182.004 19.6096H171.738C171.823 20.6233 172.178 21.4175 172.803 21.992C173.428 22.5665 174.197 22.8537 175.11 22.8537C176.428 22.8537 177.365 22.2877 177.923 21.1556H181.75C181.345 22.5073 180.568 23.6225 179.418 24.5011C178.269 25.3628 176.858 25.7937 175.186 25.7937C173.834 25.7937 172.617 25.498 171.536 24.9066C170.471 24.2983 169.635 23.4451 169.026 22.3468C168.435 21.2485 168.139 19.9813 168.139 18.5451C168.139 17.092 168.435 15.8163 169.026 14.718C169.618 13.6197 170.446 12.7749 171.51 12.1835C172.575 11.5921 173.8 11.2965 175.186 11.2965C176.52 11.2965 177.712 11.5837 178.759 12.1582C179.824 12.7327 180.644 13.5521 181.218 14.6166C181.81 15.6642 182.105 16.8723 182.105 18.2409ZM178.43 17.2271C178.413 16.3147 178.084 15.5882 177.441 15.0475C176.799 14.4899 176.014 14.2111 175.084 14.2111C174.205 14.2111 173.462 14.4815 172.854 15.0221C172.262 15.5459 171.899 16.2809 171.764 17.2271H178.43Z" fill="#297BCA"></path></svg>