<svg xmlns="http://www.w3.org/2000/svg" width="132" height="40" viewBox="0 0 152 40" fill="none"><path d="M55.2511 27.2488V27.1763C55.2511 23.8313 53.2063 21.0669 50.303 21.0669C47.3393 21.0669 45.446 23.8009 45.446 27.1037V27.1763C45.446 30.4851 47.4908 33.2494 50.3638 33.2494C53.3577 33.2494 55.2511 30.5154 55.2511 27.2488ZM41.7501 27.2488V27.1763C41.7501 21.7503 45.4156 17.2559 50.3636 17.2559C55.3116 17.2559 58.9469 21.6777 58.9469 27.1037V27.1763C58.9469 32.5659 55.2814 37.0603 50.303 37.0603C45.3853 37.0603 41.7501 32.6386 41.7501 27.2488ZM73.9123 27.1824V27.1098C73.9123 23.444 71.8068 21.0365 69.3025 21.0365C66.7982 21.0365 64.5968 23.4803 64.5968 27.1098V27.1824C64.5968 30.8118 66.7982 33.2555 69.3024 33.2555C71.8371 33.2555 73.9123 30.9207 73.9123 27.1824ZM60.9918 12.3684C60.9918 11.1465 61.7845 10.2087 62.8246 10.2087C63.8647 10.2087 64.6877 11.1404 64.6877 12.3684V20.8188C65.8793 18.8407 67.5606 17.262 70.1861 17.262C73.9729 17.262 77.6687 20.7825 77.6687 27.1098V27.1824C77.6687 33.4734 74.0031 37.0301 70.1861 37.0301C67.5 37.0301 65.8186 35.4513 64.6877 33.685V34.659C64.6877 35.8445 63.8647 36.8184 62.8246 36.8184C61.8148 36.8184 60.9918 35.8506 60.9918 34.6588V12.3684ZM79.9912 19.6332C79.9912 18.4112 80.7839 17.4434 81.824 17.4434C82.8642 17.4434 83.6871 18.4112 83.6871 19.6332V34.659C83.6871 35.8808 82.8641 36.8184 81.824 36.8184C80.8142 36.8184 79.9912 35.8869 79.9912 34.6588V19.6332ZM79.7135 12.5498C79.7135 11.2553 80.6274 10.4266 81.819 10.4266C83.0106 10.4266 83.9244 11.2553 83.9244 12.5498V12.7675C83.9244 14.062 83.0106 14.9271 81.819 14.9271C80.6274 14.9271 79.7135 14.062 79.7135 12.7675V12.5498ZM87.2264 13.4813C87.2264 12.2594 88.0495 11.2855 89.1198 11.2855C90.16 11.2855 90.9829 12.2594 90.9829 13.4813V24.1215L101.121 12.1143C101.55 11.5759 102.005 11.2856 102.676 11.2856C103.717 11.2856 104.418 12.2594 104.418 13.3362C104.418 14.0198 104.176 14.5218 103.747 14.9876L97.0872 22.5368L104.297 33.068C104.605 33.5338 104.817 33.9693 104.817 34.6529C104.817 35.8748 103.994 36.8125 102.924 36.8125C102.192 36.8125 101.732 36.3828 101.333 35.7719L94.4617 25.4523L90.9779 29.4084V34.6226C90.9779 35.8445 90.1548 36.8124 89.1148 36.8124C88.0444 36.8124 87.2214 35.8445 87.2214 34.6226V13.4874L87.2264 13.4813ZM109.22 35.0159L104.883 20.5648C104.792 20.2804 104.701 19.8086 104.701 19.4517C104.701 18.4112 105.403 17.4374 106.504 17.4374C107.417 17.4374 108.028 18.1573 108.306 19.1613L111.421 30.6666L114.567 19.1613C114.839 18.1572 115.511 17.4374 116.46 17.4374H116.672C117.621 17.4374 118.293 18.1573 118.566 19.1613L121.741 30.6666L124.887 19.125C125.129 18.1876 125.71 17.4373 126.689 17.4373C127.699 17.4373 128.431 18.375 128.431 19.4517C128.431 19.7723 128.34 20.2079 128.28 20.4195L123.882 35.016C123.483 36.3467 122.721 36.9577 121.837 36.9577H121.716C120.802 36.9577 120.035 36.3467 119.702 35.0885L116.556 23.801L113.38 35.0885C113.042 36.3467 112.28 36.9577 111.396 36.9577H111.275C110.361 36.9577 109.593 36.3467 109.23 35.016L109.22 35.0159ZM130.416 19.6332C130.416 18.4112 131.208 17.4434 132.248 17.4434C133.289 17.4434 134.111 18.4112 134.111 19.6332V34.659C134.111 35.8808 133.289 36.8184 132.248 36.8184C131.239 36.8184 130.416 35.8869 130.416 34.6588V19.6332ZM130.138 12.5498C130.138 11.2553 131.052 10.4266 132.243 10.4266C133.435 10.4266 134.349 11.2553 134.349 12.5498V12.7675C134.349 14.062 133.435 14.9271 132.243 14.9271C131.052 14.9271 130.138 14.062 130.138 12.7675L130.138 12.5498ZM137.227 12.3684C137.227 11.1828 138.019 10.2087 139.059 10.2087C140.1 10.2087 140.923 11.1766 140.923 12.3684V26.39L147.855 18.375C148.345 17.8003 148.804 17.4434 149.445 17.4434C150.425 17.4434 151.066 18.375 151.066 19.4215C151.066 20.1413 150.758 20.6796 150.243 21.2543L145.967 25.8938L150.854 33.4068C151.192 33.9452 151.344 34.3443 151.344 34.8464C151.344 36.032 150.551 36.8245 149.602 36.8245C148.87 36.8245 148.441 36.5401 147.981 35.8567L143.371 28.6281L140.928 31.3622V34.671C140.928 35.893 140.105 36.8306 139.065 36.8306C138.055 36.8306 137.232 35.8989 137.232 34.671V12.3804L137.227 12.3684ZM42.1793 17.9212C41.2502 17.9212 40.4929 17.032 40.4929 15.9371C40.4929 14.8422 41.2502 13.947 42.1793 13.947C43.1132 13.947 43.8706 14.8422 43.8706 15.9371C43.8706 17.032 43.1134 17.9212 42.1793 17.9212ZM45.2945 14.8664C44.9714 11.3217 41.9267 12.7432 41.9267 12.7432C39.7658 13.7293 39.271 13.3118 39.271 13.3118L39.6749 6.40987C39.4478 3.18576 35.8477 4.30491 35.8477 4.30491C37.7967 5.36346 37.3979 6.60344 37.3979 6.60344C37.3979 6.60344 35.2772 32.0093 35.0348 33.6365C34.7925 35.2637 32.9144 34.5984 32.9144 34.5984V37.3808H35.358C37.1504 37.3808 37.312 34.5016 37.312 34.5016L38.5086 21.0123C40.3969 20.6371 41.8763 20.123 41.8763 20.123C45.8851 18.52 45.2945 14.8726 45.2945 14.8726V14.8664ZM43.1234 15.9371C43.1234 16.5482 42.6993 17.0441 42.1793 17.0441C41.6642 17.0441 41.2401 16.542 41.2401 15.9371C41.2401 15.3322 41.6642 14.8241 42.1792 14.8241C42.6993 14.8241 43.1234 15.3201 43.1234 15.9371ZM20.0645 21.823L25.9771 8.40628C25.9872 8.38806 25.9973 8.36997 26.0074 8.35782C26.2851 7.52308 26.9314 6.91808 27.7039 6.79713C26.9414 6.82142 26.2043 7.30535 25.8256 8.16426L20.0645 21.2543V21.8289V21.823ZM2.6758 37.0061C1.63068 36.3587 1.22169 34.8161 1.77714 33.5943L16.0253 1.75841C16.3284 1.07485 16.8736 0.633184 17.4745 0.481998C17.5098 0.469979 17.5401 0.463907 17.5704 0.451761C17.6512 0.439616 17.747 0.421524 17.838 0.421524C17.8733 0.421524 17.9137 0.409379 17.944 0.409379C17.9695 0.410018 17.9949 0.414092 18.0197 0.421524C18.0854 0.421524 18.146 0.43367 18.2116 0.445689C18.2974 0.457834 18.3833 0.476052 18.4741 0.506163C18.5095 0.512236 18.5449 0.530454 18.5801 0.548545C18.6861 0.584855 18.7871 0.633311 18.8882 0.693785C18.8983 0.699731 18.9135 0.699731 18.9135 0.711877C18.927 0.715627 18.9392 0.724028 18.9488 0.736041C19.0649 0.802588 19.1558 0.88128 19.2466 0.971992C19.2668 0.990084 19.287 1.00236 19.3022 1.02032L19.4184 1.15949C19.383 1.09901 19.3527 1.02639 19.3123 0.971992C19.2964 0.958295 19.2841 0.939408 19.277 0.91759C19.1962 0.808787 19.1154 0.711877 19.0144 0.615219C18.9993 0.602947 18.9791 0.578783 18.9588 0.560691C18.8629 0.481998 18.767 0.39736 18.661 0.330813C18.6508 0.32474 18.6357 0.306648 18.6256 0.294503C18.6104 0.28843 18.5953 0.28843 18.5802 0.282357C18.4842 0.227956 18.3884 0.173554 18.2772 0.137244C18.2368 0.119026 18.2014 0.106881 18.156 0.0887891C18.0753 0.0647512 17.9844 0.0526057 17.8986 0.0343875C17.8334 0.0223504 17.7676 0.0163022 17.7016 0.0162959C17.6713 0.0162959 17.6512 0.00415039 17.621 0.00415039C17.5907 0.00415039 17.5553 0.0162959 17.5099 0.0162959C17.4188 0.0233739 17.3278 0.0334567 17.2372 0.046533C17.2019 0.0585519 17.1716 0.0646247 17.1363 0.0767701C16.5254 0.227956 15.9699 0.675567 15.6569 1.37735L1.12073 33.8663C0.555244 35.1186 0.964233 36.6913 2.0346 37.3506C2.77168 37.8103 3.63011 37.7075 4.28134 37.1933C3.76137 37.3749 3.17571 37.3325 2.6607 37.018L2.6758 37.0061ZM17.9491 34.4412C16.7878 34.4412 15.8285 33.316 15.8285 31.9489V13.0338L15.4751 13.8202V32.1849C15.4751 33.5823 16.4495 34.7317 17.6361 34.7317C18.2217 34.7317 18.7518 34.4534 19.1456 33.9997C18.7972 34.278 18.3884 34.4412 17.944 34.4412H17.9491ZM27.9764 33.0983C26.8101 33.0983 25.8558 31.9732 25.8558 30.606V19.5243L25.5175 20.3167V30.9933C25.5175 32.4208 26.5071 33.6004 27.7239 33.6004C28.6781 33.6004 29.4961 32.8623 29.799 31.8522C29.4355 32.5961 28.754 33.1043 27.9763 33.1043L27.9764 33.0983ZM34.1413 1.61924C34.1413 1.61924 27.3603 2.96815 20.0645 4.40182V21.823L25.9771 8.40628C25.9872 8.38806 25.9973 8.36997 26.0074 8.35782C26.3204 7.43237 27.0828 6.77297 27.9715 6.77297C29.1377 6.77297 30.092 7.89807 30.092 9.26519V30.6001C30.092 31.9732 29.1377 33.0922 27.9715 33.0922C26.8051 33.0922 25.8508 31.9671 25.8508 30.6001V19.5182L20.2213 32.3301C20.1411 32.5037 20.0426 32.6643 19.9283 32.8079C19.6255 33.7577 18.8528 34.4412 17.944 34.4412C16.7827 34.4412 15.8235 33.316 15.8235 31.9489V13.0338L5.56882 35.9413C5.0235 37.1632 3.71079 37.6471 2.67062 36.9999C1.6255 36.3526 1.21651 34.8101 1.77197 33.5883L14.3339 5.51477C8.32055 6.6944 3.10496 7.71057 2.42838 7.81343C0.747119 8.06747 0.368437 9.79137 0.368437 9.79137C0.368437 9.79137 0.312891 36.9453 0.368437 38.2942C0.418914 39.6371 1.62054 39.8912 1.62054 39.8912C1.62054 39.8912 29.9606 40.1453 31.4248 39.8912C32.8941 39.6371 33.1617 37.6591 33.1617 37.6591L36.0396 3.33707C35.9336 1.09901 34.1413 1.60697 34.1413 1.60697V1.61924Z" fill="#0072CF"></path></svg>