<svg xmlns="http://www.w3.org/2000/svg" width="119" height="40" viewBox="0 0 129 40" fill="none"><path d="M127.913 11.8025C126.755 8.4903 123.598 6.11186 119.89 6.11186H119.812C117.402 6.11186 115.229 7.11513 113.683 8.72571C112.134 7.11513 109.961 6.11186 107.554 6.11186H107.476C105.357 6.11186 103.42 6.88769 101.933 8.17194V7.51912C101.882 6.86896 101.347 6.35803 100.686 6.35803H94.998C94.3024 6.35803 93.7406 6.91984 93.7406 7.61809V38.5057C93.7406 39.2039 94.3024 39.7658 94.998 39.7658H100.686C101.32 39.7658 101.842 39.2923 101.925 38.6796L101.922 16.5058C101.921 16.4316 101.925 16.3575 101.933 16.2838C102.024 15.2938 102.749 14.4805 103.894 14.3788H104.942C105.421 14.4216 105.825 14.5902 106.144 14.8443C106.639 15.2376 106.914 15.8423 106.914 16.5058L106.936 38.5699C106.936 39.2681 107.5 39.8326 108.193 39.8326H113.881C114.552 39.8326 115.098 39.2976 115.13 38.6314L115.128 16.4764C115.125 15.7486 115.462 15.0905 116.053 14.6999C116.345 14.5125 116.695 14.3869 117.099 14.3494H118.148C119.379 14.4564 120.123 15.3901 120.12 16.4764L120.141 38.511C120.141 39.2093 120.706 39.7711 121.399 39.7711H127.087C127.78 39.7711 128.344 39.2093 128.344 38.511V14.8123C128.344 13.1963 128.162 12.5087 127.913 11.8025ZM89.4074 6.4385H86.1541V1.15189C86.1541 0.517803 85.6404 0.00415039 85.0063 0.00415039C84.9314 0.00415039 84.8592 0.0147678 84.7897 0.0281911C81.1832 1.01811 81.9055 6.01312 75.3214 6.4385H74.6819C74.5856 6.4385 74.4947 6.45185 74.4064 6.47058C73.8445 6.59639 73.4219 7.09662 73.4219 7.69597V13.3838C73.4219 14.0768 73.9863 14.6412 74.6819 14.6412H78.1145L78.1092 38.7601C78.1092 39.4476 78.6656 40.0042 79.3532 40.0042H84.9769C85.6618 40.0042 86.2184 39.4476 86.2184 38.7601L86.221 14.6412H89.4074C90.1003 14.6412 90.6648 14.0768 90.6648 13.3838V7.69597C90.6648 7.00304 90.1003 6.4385 89.4074 6.4385Z" fill="#00BAF2"></path><path d="M68.9453 6.43447H63.2575C62.5645 6.43447 62.0026 6.99901 62.0026 7.69187V19.453C61.9893 20.1807 61.4007 20.764 60.6703 20.764H58.2892C57.5508 20.764 56.9542 20.17 56.9542 19.4316L56.9328 7.69195C56.9328 6.99901 56.3682 6.43455 55.6754 6.43455H49.9874C49.2918 6.43455 48.73 6.99901 48.73 7.69195V20.582C48.73 25.478 52.2214 28.9694 57.12 28.9694C57.12 28.9694 60.796 28.9694 60.9084 28.9908C61.5719 29.0658 62.0883 29.6222 62.0883 30.3071C62.0883 30.984 61.5826 31.5378 60.9272 31.6207C60.8951 31.6261 60.8657 31.6341 60.8309 31.6395L52.513 31.6689C51.8174 31.6689 51.2556 32.2334 51.2556 32.9263V38.6116C51.2556 39.3072 51.8174 39.869 52.513 39.869H61.8127C66.714 39.869 70.2027 36.3803 70.2027 31.4817V7.69195C70.2027 6.99901 69.6409 6.43447 68.9453 6.43447ZM13.8903 16.8566V20.3667C13.8903 21.1024 13.2937 21.7017 12.558 21.7017L8.94882 21.7044V14.6707H12.558C13.2937 14.6707 13.8903 15.2646 13.8903 16.0031V16.8566ZM14.3906 6.43311H1.95797C1.27573 6.43311 0.724609 6.98695 0.724609 7.66646V13.2394C0.724609 13.2501 0.727264 13.2608 0.727264 13.2714C0.727264 13.2982 0.724609 13.325 0.724609 13.349V38.5728C0.724609 39.2577 1.23826 39.8169 1.87508 39.8329H7.66988C8.36281 39.8329 8.92728 39.2711 8.92728 38.5755L8.94874 29.9312H14.3905C18.944 29.9312 22.1171 26.7716 22.1171 22.1993V14.1758C22.1171 9.60353 18.9441 6.43311 14.3906 6.43311ZM37.4903 30.21V31.0982C37.4903 31.1705 37.4796 31.24 37.4689 31.3069C37.4556 31.3697 37.4377 31.4314 37.4154 31.4915C37.2388 31.9892 36.7412 32.3503 36.1499 32.3503H33.7822C33.0438 32.3503 32.4419 31.7885 32.4419 31.0982V30.0254C32.4419 30.0121 32.4391 29.9986 32.4391 29.9853L32.4419 27.1307V26.237L32.4445 26.229C32.4472 25.5414 33.0438 24.985 33.7822 24.985H36.1499C36.891 24.985 37.4903 25.5441 37.4903 26.2371L37.4903 30.21ZM36.5861 6.46579H28.6936C27.9954 6.46579 27.4309 6.99552 27.4309 7.64561V9.85819C27.4309 9.87154 27.4336 9.88762 27.4336 9.90096C27.4336 9.91704 27.4308 9.93304 27.4308 9.94912V12.9804C27.4308 13.668 28.0302 14.2298 28.7686 14.2298H36.2837C36.8777 14.3235 37.3486 14.7569 37.4155 15.4337V16.1668C37.3486 16.8116 36.8831 17.2824 36.3158 17.3359H32.5944C27.6449 17.3359 24.1188 20.624 24.1188 25.2418V31.8554C24.1188 36.4464 27.15 39.713 32.0646 39.713H42.3783C44.2297 39.713 45.7306 38.3111 45.7306 36.5855V15.003C45.7306 9.76992 43.0339 6.46579 36.5861 6.46579Z" fill="#1F336B"></path></svg>