<svg width="22" height="23" viewBox="0 0 22 23" fill="none" xmlns="http://www.w3.org/2000/svg"><path d="M5.43949 3.33408C5.70916 2.22197 7.29084 2.22197 7.56051 3.33408L8.30252 6.39413C8.3988 6.79118 8.70882 7.1012 9.10587 7.19748L12.1659 7.93949C13.278 8.20916 13.278 9.79084 12.1659 10.0605L9.10587 10.8025C8.70882 10.8988 8.3988 11.2088 8.30252 11.6059L7.56051 14.6659C7.29084 15.778 5.70916 15.778 5.43949 14.6659L4.69748 11.6059C4.6012 11.2088 4.29118 10.8988 3.89413 10.8025L0.834083 10.0605C-0.278027 9.79084 -0.278028 8.20916 0.834082 7.93949L3.89413 7.19748C4.29118 7.1012 4.6012 6.79118 4.69748 6.39413L5.43949 3.33408Z" fill="url(#paint0_linear_3131_942)"></path><path d="M14.3474 14.0133C14.5133 13.3289 15.4867 13.3289 15.6526 14.0133L16.1092 15.8964C16.1685 16.1407 16.3593 16.3315 16.6036 16.3908L18.4867 16.8474C19.1711 17.0133 19.1711 17.9867 18.4867 18.1526L16.6036 18.6092C16.3593 18.6685 16.1685 18.8593 16.1092 19.1036L15.6526 20.9867C15.4867 21.6711 14.5133 21.6711 14.3474 20.9867L13.8908 19.1036C13.8315 18.8593 13.6407 18.6685 13.3964 18.6092L11.5133 18.1526C10.8289 17.9867 10.8289 17.0133 11.5133 16.8474L13.3964 16.3908C13.6407 16.3315 13.8315 16.1407 13.8908 15.8964L14.3474 14.0133Z" fill="url(#paint1_linear_3131_942)"></path><path d="M17.5717 3.21184C17.6806 2.76272 18.3194 2.76272 18.4283 3.21184L18.7279 4.44763C18.7668 4.60798 18.892 4.73318 19.0524 4.77206L20.2882 5.07172C20.7373 5.18062 20.7373 5.81938 20.2882 5.92828L19.0524 6.22794C18.892 6.26682 18.7668 6.39202 18.7279 6.55237L18.4283 7.78816C18.3194 8.23728 17.6806 8.23728 17.5717 7.78816L17.2721 6.55237C17.2332 6.39202 17.108 6.26682 16.9476 6.22794L15.7118 5.92828C15.2627 5.81938 15.2627 5.18062 15.7118 5.07172L16.9476 4.77206C17.108 4.73318 17.2332 4.60798 17.2721 4.44763L17.5717 3.21184Z" fill="url(#paint2_linear_3131_942)"></path><path fill-rule="evenodd" clip-rule="evenodd" d="M18 3.43109L17.7554 4.43972C17.6577 4.84288 17.3429 5.15766 16.9397 5.25542L15.9311 5.5L16.9397 5.74458C17.3429 5.84234 17.6577 6.15712 17.7554 6.56029L18 7.56891L18.2446 6.56029C18.3423 6.15712 18.6571 5.84234 19.0603 5.74458L20.0689 5.5L19.0603 5.25542C18.6571 5.15766 18.3423 4.84288 18.2446 4.43972L18 3.43109ZM18.4895 2.88496C18.365 2.37168 17.635 2.37168 17.5105 2.88496L17.1681 4.29729C17.1236 4.48055 16.9805 4.62363 16.7973 4.66807L15.385 5.01054C14.8717 5.135 14.8717 5.865 15.385 5.98947L16.7973 6.33193C16.9805 6.37637 17.1236 6.51945 17.1681 6.70271L17.5105 8.11504C17.635 8.62832 18.365 8.62832 18.4895 8.11504L18.8319 6.70271C18.8764 6.51945 19.0195 6.37637 19.2027 6.33193L20.615 5.98947C21.1283 5.865 21.1283 5.135 20.615 5.01054L19.2027 4.66807C19.0195 4.62363 18.8764 4.48055 18.8319 4.29729L18.4895 2.88496Z" fill="url(#paint3_linear_3131_942)"></path><path d="M6 22.5C5.44772 22.5 5 22.0523 5 21.5C5 20.9477 5.44772 20.5 6 20.5C6.55228 20.5 7 20.9477 7 21.5C7 22.0523 6.55228 22.5 6 22.5Z" fill="url(#paint4_linear_3131_942)"></path><path d="M1 18.5C0.447715 18.5 -2.41411e-08 18.0523 0 17.5C2.41411e-08 16.9477 0.447715 16.5 1 16.5C1.55228 16.5 2 16.9477 2 17.5C2 18.0523 1.55228 18.5 1 18.5Z" fill="url(#paint5_linear_3131_942)"></path><path d="M12 2.5C11.4477 2.5 11 2.05228 11 1.5C11 0.947715 11.4477 0.5 12 0.5C12.5523 0.5 13 0.947715 13 1.5C13 2.05228 12.5523 2.5 12 2.5Z" fill="url(#paint6_linear_3131_942)"></path><path d="M21 13.5C20.4477 13.5 20 13.0523 20 12.5C20 11.9477 20.4477 11.5 21 11.5C21.5523 11.5 22 11.9477 22 12.5C22 13.0523 21.5523 13.5 21 13.5Z" fill="url(#paint7_linear_3131_942)"></path><defs><linearGradient id="paint0_linear_3131_942" x1="11" y1="0.5" x2="11" y2="22.5" gradientUnits="userSpaceOnUse"><stop stop-color="#FFA800"></stop><stop offset="1" stop-color="#FFF2AB"></stop></linearGradient><linearGradient id="paint1_linear_3131_942" x1="11" y1="0.5" x2="11" y2="22.5" gradientUnits="userSpaceOnUse"><stop stop-color="#FFA800"></stop><stop offset="1" stop-color="#FFF2AB"></stop></linearGradient><linearGradient id="paint2_linear_3131_942" x1="11" y1="0.5" x2="11" y2="22.5" gradientUnits="userSpaceOnUse"><stop stop-color="#FFA800"></stop><stop offset="1" stop-color="#FFF2AB"></stop></linearGradient><linearGradient id="paint3_linear_3131_942" x1="11" y1="0.5" x2="11" y2="22.5" gradientUnits="userSpaceOnUse"><stop stop-color="#FFA800"></stop><stop offset="1" stop-color="#FFF2AB"></stop></linearGradient><linearGradient id="paint4_linear_3131_942" x1="11" y1="0.5" x2="11" y2="22.5" gradientUnits="userSpaceOnUse"><stop stop-color="#FFA800"></stop><stop offset="1" stop-color="#FFF2AB"></stop></linearGradient><linearGradient id="paint5_linear_3131_942" x1="11" y1="0.5" x2="11" y2="22.5" gradientUnits="userSpaceOnUse"><stop stop-color="#FFA800"></stop><stop offset="1" stop-color="#FFF2AB"></stop></linearGradient><linearGradient id="paint6_linear_3131_942" x1="11" y1="0.5" x2="11" y2="22.5" gradientUnits="userSpaceOnUse"><stop stop-color="#FFA800"></stop><stop offset="1" stop-color="#FFF2AB"></stop></linearGradient><linearGradient id="paint7_linear_3131_942" x1="11" y1="0.5" x2="11" y2="22.5" gradientUnits="userSpaceOnUse"><stop stop-color="#FFA800"></stop><stop offset="1" stop-color="#FFF2AB"></stop></linearGradient></defs></svg>