<svg width="226" height="50" viewBox="0 0 226 50" fill="none" xmlns="http://www.w3.org/2000/svg"><path d="M0.439314 39.1157C0.351451 39.6467 0.263588 40.4431 0.702902 41.6819C2.10871 45.487 6.58971 47.6993 7.5562 48.1417C11.2464 49.9115 14.5852 50 16.0789 50C16.7818 50 19.5934 50 23.1079 48.8496C24.4258 48.4072 26.3588 47.7878 28.3797 46.2834C30.3127 44.8676 31.1034 43.5402 31.367 43.1863C31.367 43.1863 31.367 43.1863 31.367 43.0978C31.6306 42.6553 32.5092 41.2395 32.2456 39.4697C32.2456 39.2042 31.8942 37.5229 30.4884 36.461C30.4884 36.461 28.1161 34.8682 25.4802 36.2841C25.3923 36.2841 25.3045 36.3725 25.3045 36.3725C25.1288 36.5495 24.953 36.638 24.953 36.638C24.6894 36.9035 23.7229 37.7884 23.6351 37.8769C23.6351 37.8769 23.02 38.4078 21.4385 39.4697C21.2628 39.5582 21.0871 39.7352 21.0871 39.7352L20.9992 39.8237C20.5599 40.0891 19.6813 40.5316 18.6269 40.797C17.8361 40.974 16.1667 41.505 14.058 40.974C12.3008 40.6201 11.0707 39.7352 10.5435 39.3812C9.75277 38.8503 9.6649 38.5848 7.90765 37.169C6.58971 36.1071 6.32612 35.9301 5.88681 35.8416C4.30528 35.3107 2.81161 36.1071 2.63588 36.2841C2.46016 36.1956 0.790765 37.169 0.439314 39.1157Z" fill="white"></path><path d="M31.367 16.1071C31.367 11.8596 31.4549 7.52355 31.4549 3.27603C31.367 2.92208 31.1913 2.47962 30.752 1.94869C30.4884 1.50624 29.7855 0.621336 28.5554 0.178886C28.2918 0.0903956 27.3253 -0.175074 26.271 0.178886C24.8652 0.621336 24.2501 1.8602 24.0744 2.12567C23.8108 2.56811 23.7229 3.01056 23.7229 3.27603C23.7229 3.45301 23.7229 3.62999 23.7229 3.80697C21.3507 2.39113 18.6269 1.50624 15.6396 1.50624C7.02902 1.59473 0 8.67392 0 17.4344C0 26.1949 7.02902 33.1856 15.6396 33.1856C24.2501 33.1856 31.2791 26.1064 31.2791 17.4344C31.367 16.992 31.2791 16.5495 31.367 16.1071ZM15.6396 24.5136C11.6857 24.5136 8.61055 21.328 8.61055 17.3459C8.61055 13.3639 11.7736 10.1783 15.7274 10.1783C19.6813 10.1783 22.8443 13.3639 22.8443 17.3459C22.8443 21.328 19.5934 24.5136 15.6396 24.5136Z" fill="white"></path><path d="M55.1658 14.1206C56.466 14.1206 57.6089 14.3846 58.5945 14.9126C59.5802 15.4195 60.3561 16.0848 60.9223 16.9085V14.4057H65.3577V32.0837C65.3577 33.71 65.0326 35.1568 64.3825 36.424C63.7324 37.7124 62.7573 38.7262 61.4571 39.4654C60.1569 40.2257 58.5841 40.6059 56.7386 40.6059C54.264 40.6059 52.2298 40.0251 50.636 38.8634C49.0632 37.7018 48.172 36.1178 47.9622 34.1113H52.3347C52.5654 34.9139 53.0582 35.5475 53.8132 36.0122C54.5891 36.4979 55.5223 36.7408 56.6128 36.7408C57.892 36.7408 58.9301 36.3501 59.727 35.5686C60.5239 34.8083 60.9223 33.6466 60.9223 32.0837V29.3591C60.3561 30.1828 59.5697 30.8693 58.5631 31.4184C57.5774 31.9675 56.445 32.2421 55.1658 32.2421C53.6978 32.2421 52.3557 31.8619 51.1394 31.1016C49.923 30.3413 48.9584 29.2747 48.2454 27.9018C47.5533 26.5078 47.2073 24.9132 47.2073 23.118C47.2073 21.3438 47.5533 19.7703 48.2454 18.3975C48.9584 17.0247 49.9126 15.9686 51.1079 15.2294C52.3242 14.4902 53.6768 14.1206 55.1658 14.1206ZM60.9223 23.1813C60.9223 22.1042 60.7126 21.1854 60.2932 20.4251C59.8738 19.6436 59.3076 19.0522 58.5945 18.651C57.8815 18.2285 57.1161 18.0173 56.2982 18.0173C55.4804 18.0173 54.7254 18.218 54.0333 18.6193C53.3413 19.0206 52.7751 19.6119 52.3347 20.3934C51.9153 21.1538 51.7056 22.0619 51.7056 23.118C51.7056 24.174 51.9153 25.1033 52.3347 25.9059C52.7751 26.6874 53.3413 27.2893 54.0333 27.7117C54.7464 28.1341 55.5013 28.3453 56.2982 28.3453C57.1161 28.3453 57.8815 28.1447 58.5945 27.7434C59.3076 27.321 59.8738 26.7296 60.2932 25.9693C60.7126 25.1878 60.9223 24.2585 60.9223 23.1813Z" fill="white"></path><path d="M77.3972 32.2421C75.7195 32.2421 74.2096 31.8725 72.8674 31.1333C71.5253 30.3729 70.4662 29.3063 69.6903 27.9335C68.9354 26.5606 68.5579 24.9766 68.5579 23.1813C68.5579 21.3861 68.9458 19.802 69.7218 18.4292C70.5187 17.0563 71.5987 16.0003 72.9618 15.2611C74.3249 14.5007 75.8453 14.1206 77.523 14.1206C79.2007 14.1206 80.7211 14.5007 82.0842 15.2611C83.4473 16.0003 84.5168 17.0563 85.2927 18.4292C86.0896 19.802 86.4881 21.3861 86.4881 23.1813C86.4881 24.9766 86.0791 26.5606 85.2613 27.9335C84.4644 29.3063 83.3739 30.3729 81.9898 31.1333C80.6267 31.8725 79.0958 32.2421 77.3972 32.2421ZM77.3972 28.377C78.1941 28.377 78.9385 28.1869 79.6306 27.8068C80.3436 27.4055 80.9098 26.8141 81.3292 26.0326C81.7486 25.2512 81.9583 24.3007 81.9583 23.1813C81.9583 21.5128 81.518 20.235 80.6372 19.3479C79.7774 18.4397 78.7183 17.9856 77.4601 17.9856C76.2018 17.9856 75.1428 18.4397 74.283 19.3479C73.4441 20.235 73.0247 21.5128 73.0247 23.1813C73.0247 24.8499 73.4336 26.1382 74.2515 27.0464C75.0903 27.9335 76.1389 28.377 77.3972 28.377Z" fill="white"></path><path d="M97.4568 32.2421C95.7791 32.2421 94.2692 31.8725 92.9271 31.1333C91.5849 30.3729 90.5259 29.3063 89.75 27.9335C88.995 26.5606 88.6175 24.9766 88.6175 23.1813C88.6175 21.3861 89.0055 19.802 89.7814 18.4292C90.5783 17.0563 91.6583 16.0003 93.0214 15.2611C94.3846 14.5007 95.905 14.1206 97.5826 14.1206C99.2603 14.1206 100.781 14.5007 102.144 15.2611C103.507 16.0003 104.576 17.0563 105.352 18.4292C106.149 19.802 106.548 21.3861 106.548 23.1813C106.548 24.9766 106.139 26.5606 105.321 27.9335C104.524 29.3063 103.434 30.3729 102.049 31.1333C100.686 31.8725 99.1554 32.2421 97.4568 32.2421ZM97.4568 28.377C98.2537 28.377 98.9982 28.1869 99.6902 27.8068C100.403 27.4055 100.969 26.8141 101.389 26.0326C101.808 25.2512 102.018 24.3007 102.018 23.1813C102.018 21.5128 101.578 20.235 100.697 19.3479C99.837 18.4397 98.778 17.9856 97.5197 17.9856C96.2615 17.9856 95.2024 18.4397 94.3426 19.3479C93.5038 20.235 93.0844 21.5128 93.0844 23.1813C93.0844 24.8499 93.4933 26.1382 94.3112 27.0464C95.15 27.9335 96.1985 28.377 97.4568 28.377Z" fill="white"></path><path d="M108.646 23.118C108.646 21.3438 108.992 19.7703 109.684 18.3975C110.397 17.0247 111.361 15.9686 112.578 15.2294C113.794 14.4902 115.147 14.1206 116.636 14.1206C117.768 14.1206 118.848 14.374 119.876 14.8809C120.903 15.3667 121.721 16.0214 122.329 16.8451V8.51302H126.796V31.957H122.329V29.3591C121.784 30.2251 121.019 30.9221 120.033 31.4501C119.047 31.9781 117.904 32.2421 116.604 32.2421C115.136 32.2421 113.794 31.8619 112.578 31.1016C111.361 30.3413 110.397 29.2747 109.684 27.9018C108.992 26.5078 108.646 24.9132 108.646 23.118ZM122.361 23.1813C122.361 22.1042 122.151 21.1854 121.732 20.4251C121.312 19.6436 120.746 19.0522 120.033 18.651C119.32 18.2285 118.555 18.0173 117.737 18.0173C116.919 18.0173 116.164 18.218 115.472 18.6193C114.78 19.0206 114.214 19.6119 113.773 20.3934C113.354 21.1538 113.144 22.0619 113.144 23.118C113.144 24.174 113.354 25.1033 113.773 25.9059C114.214 26.6874 114.78 27.2893 115.472 27.7117C116.185 28.1341 116.94 28.3453 117.737 28.3453C118.555 28.3453 119.32 28.1447 120.033 27.7434C120.746 27.321 121.312 26.7296 121.732 25.9693C122.151 25.1878 122.361 24.2585 122.361 23.1813Z" fill="white"></path><path d="M137.766 32.2421C136.34 32.2421 135.061 31.9887 133.928 31.4818C132.796 30.9538 131.894 30.2462 131.223 29.3591C130.573 28.4721 130.217 27.49 130.154 26.4128H134.589C134.673 27.0887 134.998 27.6484 135.564 28.0919C136.151 28.5354 136.875 28.7572 137.735 28.7572C138.573 28.7572 139.224 28.5882 139.685 28.2503C140.167 27.9124 140.408 27.4794 140.408 26.9514C140.408 26.3811 140.115 25.9587 139.528 25.6841C138.961 25.3885 138.049 25.0716 136.791 24.7337C135.491 24.4169 134.421 24.0895 133.582 23.7516C132.764 23.4137 132.051 22.8962 131.443 22.1992C130.856 21.5022 130.563 20.5624 130.563 19.3796C130.563 18.4081 130.835 17.521 131.38 16.7184C131.947 15.9158 132.744 15.2822 133.771 14.8175C134.82 14.3529 136.046 14.1206 137.452 14.1206C139.528 14.1206 141.184 14.6486 142.422 15.7046C143.659 16.7395 144.34 18.1441 144.466 19.9182H140.251C140.188 19.2212 139.895 18.6721 139.37 18.2708C138.867 17.8484 138.185 17.6372 137.326 17.6372C136.529 17.6372 135.91 17.785 135.47 18.0807C135.05 18.3764 134.841 18.7882 134.841 19.3163C134.841 19.9076 135.134 20.3617 135.721 20.6785C136.309 20.9742 137.221 21.2805 138.458 21.5973C139.716 21.9141 140.754 22.2415 141.572 22.5794C142.39 22.9173 143.093 23.4453 143.68 24.1635C144.288 24.8604 144.603 25.7897 144.624 26.9514C144.624 27.9652 144.34 28.8734 143.774 29.6759C143.229 30.4785 142.432 31.1122 141.384 31.5768C140.356 32.0203 139.15 32.2421 137.766 32.2421Z" fill="white"></path><path d="M152.643 16.9402C153.209 16.1376 153.985 15.4723 154.97 14.9443C155.977 14.3951 157.12 14.1206 158.399 14.1206C159.888 14.1206 161.23 14.4902 162.425 15.2294C163.642 15.9686 164.596 17.0247 165.288 18.3975C166.001 19.7492 166.358 21.3227 166.358 23.118C166.358 24.9132 166.001 26.5078 165.288 27.9018C164.596 29.2747 163.642 30.3413 162.425 31.1016C161.23 31.8619 159.888 32.2421 158.399 32.2421C157.12 32.2421 155.987 31.9781 155.002 31.4501C154.037 30.9221 153.251 30.2568 152.643 29.4542V40.3208H148.239V14.4057H152.643V16.9402ZM161.859 23.118C161.859 22.0619 161.639 21.1538 161.199 20.3934C160.779 19.6119 160.213 19.0206 159.5 18.6193C158.808 18.218 158.053 18.0173 157.235 18.0173C156.438 18.0173 155.683 18.2285 154.97 18.651C154.278 19.0522 153.712 19.6436 153.272 20.4251C152.852 21.2066 152.643 22.1253 152.643 23.1813C152.643 24.2374 152.852 25.1561 153.272 25.9376C153.712 26.7191 154.278 27.321 154.97 27.7434C155.683 28.1447 156.438 28.3453 157.235 28.3453C158.053 28.3453 158.808 28.1341 159.5 27.7117C160.213 27.2893 160.779 26.6874 161.199 25.9059C161.639 25.1244 161.859 24.1951 161.859 23.118Z" fill="white"></path><path d="M168.425 23.118C168.425 21.3438 168.771 19.7703 169.463 18.3975C170.176 17.0247 171.131 15.9686 172.326 15.2294C173.542 14.4902 174.895 14.1206 176.384 14.1206C177.684 14.1206 178.816 14.3846 179.781 14.9126C180.767 15.4406 181.553 16.1059 182.14 16.9085V14.4057H186.576V31.957H182.14V29.3908C181.574 30.2145 180.788 30.9009 179.781 31.4501C178.795 31.9781 177.653 32.2421 176.352 32.2421C174.884 32.2421 173.542 31.8619 172.326 31.1016C171.131 30.3413 170.176 29.2747 169.463 27.9018C168.771 26.5078 168.425 24.9132 168.425 23.118ZM182.14 23.1813C182.14 22.1042 181.931 21.1854 181.511 20.4251C181.092 19.6436 180.526 19.0522 179.813 18.651C179.1 18.2285 178.334 18.0173 177.516 18.0173C176.698 18.0173 175.943 18.218 175.251 18.6193C174.559 19.0206 173.993 19.6119 173.553 20.3934C173.133 21.1538 172.924 22.0619 172.924 23.118C172.924 24.174 173.133 25.1033 173.553 25.9059C173.993 26.6874 174.559 27.2893 175.251 27.7117C175.964 28.1341 176.719 28.3453 177.516 28.3453C178.334 28.3453 179.1 28.1447 179.813 27.7434C180.526 27.321 181.092 26.7296 181.511 25.9693C181.931 25.1878 182.14 24.2585 182.14 23.1813Z" fill="white"></path><path d="M189.744 23.1813C189.744 21.365 190.111 19.7809 190.845 18.4292C191.579 17.0563 192.597 16.0003 193.897 15.2611C195.197 14.5007 196.686 14.1206 198.364 14.1206C200.524 14.1206 202.306 14.6697 203.711 15.768C205.137 16.8451 206.091 18.3658 206.574 20.33H201.824C201.572 19.5697 201.142 18.9783 200.534 18.5559C199.947 18.1124 199.213 17.8906 198.332 17.8906C197.074 17.8906 196.078 18.3553 195.344 19.2846C194.61 20.1928 194.243 21.4917 194.243 23.1813C194.243 24.8499 194.61 26.1488 195.344 27.0781C196.078 27.9863 197.074 28.4404 198.332 28.4404C200.115 28.4404 201.278 27.6378 201.824 26.0326H206.574C206.091 27.9335 205.137 29.4436 203.711 30.563C202.285 31.6824 200.503 32.2421 198.364 32.2421C196.686 32.2421 195.197 31.8725 193.897 31.1333C192.597 30.3729 191.579 29.3169 190.845 27.9652C190.111 26.5923 189.744 24.9977 189.744 23.1813Z" fill="white"></path><path d="M226 22.8012C226 23.4348 225.958 24.005 225.874 24.5119H213.134C213.239 25.7792 213.68 26.7719 214.455 27.49C215.231 28.2081 216.186 28.5671 217.318 28.5671C218.954 28.5671 220.118 27.8596 220.81 26.4445H225.56C225.056 28.1341 224.092 29.5281 222.666 30.6264C221.24 31.7035 219.489 32.2421 217.412 32.2421C215.735 32.2421 214.225 31.8725 212.883 31.1333C211.561 30.3729 210.523 29.3063 209.768 27.9335C209.034 26.5606 208.667 24.9766 208.667 23.1813C208.667 21.365 209.034 19.7703 209.768 18.3975C210.502 17.0247 211.53 15.9686 212.851 15.2294C214.172 14.4902 215.693 14.1206 217.412 14.1206C219.069 14.1206 220.548 14.4796 221.848 15.1977C223.169 15.9158 224.186 16.9402 224.899 18.2708C225.633 19.5803 226 21.0904 226 22.8012ZM221.439 21.5339C221.418 20.3934 221.009 19.4852 220.212 18.8094C219.415 18.1124 218.44 17.7639 217.287 17.7639C216.196 17.7639 215.273 18.1018 214.518 18.7777C213.784 19.4324 213.334 20.3512 213.166 21.5339H221.439Z" fill="white"></path></svg>