<svg xmlns="http://www.w3.org/2000/svg" width="175" height="40" viewBox="0 0 190 40" fill="none"><path d="M29.181 10.2291L29.0108 15.7026L14.7352 31.2202C20.6983 31.2202 24.4795 31.1619 26.66 31.0408C26.028 33.9857 25.5141 36.3932 24.9965 40.0026C22.1288 39.7604 17.6581 39.6999 13.1851 39.6999C8.19904 39.6999 3.84113 39.7597 0.34375 40.0026L0.460304 34.4671L14.7352 19.0115C8.48588 19.0115 6.19189 19.0706 3.61332 19.1311C4.18474 16.3641 4.58662 13.2981 4.98775 10.2291C9.51671 10.4093 11.2938 10.4683 17.1994 10.4683C22.6465 10.469 25.7404 10.4093 29.181 10.2291ZM45.407 8.60342C36.1168 8.60342 29.0108 16.9037 29.0108 26.8313C29.0108 34.2885 33.3096 40.0026 41.6796 40.0026C51.0251 40.0026 58.0766 31.7008 58.0766 21.715C58.0774 14.3206 53.8905 8.60342 45.407 8.60342ZM42.5969 32.0247C40.5322 32.0247 39.3296 30.1576 39.3296 26.4892C39.3296 21.0157 41.5653 16.626 44.3187 16.626C46.3236 16.626 47.5277 18.4318 47.5277 22.1585C47.527 27.5715 45.3503 32.0247 42.5969 32.0247ZM176.717 8.1917C167.308 8.1917 160.107 16.6018 160.107 26.6542C160.107 34.2128 164.463 40.0026 172.942 40.0026C182.41 40.0026 189.554 31.5918 189.554 21.4766C189.555 13.9823 185.317 8.1917 176.717 8.1917ZM173.694 31.9929C171.628 31.9929 170.426 30.1258 170.426 26.4574C170.426 20.9839 172.663 16.5949 175.416 16.5949C177.42 16.5949 178.626 18.3993 178.626 22.1267C178.625 27.5419 176.446 31.9929 173.694 31.9929ZM106.291 19.4316C107.037 14.3206 106.636 9.68798 100.961 9.68798C96.8324 9.68798 92.3609 13.177 89.2079 19.0115C89.8967 14.198 89.494 9.68798 83.8759 9.68798C79.6338 9.68798 75.0474 13.3564 71.8928 19.4316C72.6958 15.4619 72.5248 10.9496 72.2947 9.98769C69.0274 10.5296 66.162 10.8293 62.1477 10.9496C62.2627 13.7174 62.0902 17.3238 61.574 20.7553L60.2556 29.7761C59.7394 33.3265 59.1657 37.4165 58.592 40.0034H69.256C69.3143 38.4375 69.7161 35.9724 70.0022 33.8071L70.9195 27.6131C71.6643 23.5806 74.874 18.8314 77.3391 18.8314C78.7725 18.8314 78.7165 20.2142 78.3147 22.8003L77.2823 29.7754C76.7646 33.3258 76.1932 37.4157 75.6188 40.0026H86.397C86.4553 38.4367 86.7989 35.9717 87.085 33.8063L88.0015 27.6123C88.7477 23.5799 91.9598 18.8307 94.4233 18.8307C95.8583 18.8307 95.8016 20.1521 95.57 21.9579L92.9952 40.0019H102.832L106.291 19.4316ZM157.795 30.5595L156.648 37.6579C154.87 38.6199 151.545 40.0042 147.704 40.0042C141.168 40.0042 139.851 36.5151 140.881 29.1169L142.544 17.2072H139.328L140.236 9.49801L143.748 9.32848L145.067 3.73464L154.984 0.00415039L153.724 9.32772H160.547C160.318 10.2897 159.513 15.5846 159.287 17.2065H152.633L151.142 28.214C150.741 31.0408 150.972 32.0641 152.918 32.0641C154.355 32.0626 156.474 31.2202 157.795 30.5595ZM120.176 34.3937C123.786 33.9464 126.27 30.4672 126.867 26.9955L126.968 26.0653C125.417 25.7187 123.175 25.4546 121.001 25.7202C118.931 25.9722 117.209 26.8328 116.283 28.0785C115.584 28.9731 115.233 30.0433 115.389 31.3194C115.624 33.2304 117.738 34.6911 120.176 34.3937ZM117.104 39.8914C112.01 40.5173 108.655 38.495 107.648 33.8957C107.016 31.0015 107.893 27.7047 109.427 25.7376C111.482 23.1651 114.83 21.5137 118.916 21.0149C122.205 20.607 124.976 20.8083 127.567 21.2987L127.675 20.8545C127.749 20.1438 127.824 19.4346 127.72 18.5854C127.451 16.405 125.732 15.1062 121.486 15.6285C118.621 15.9804 115.896 17.015 113.78 18.1926L111.721 11.9721C114.589 10.3252 118.205 9.07191 122.343 8.56406C130.246 7.59455 135.8 10.1148 136.511 15.9092C136.7 17.4502 136.723 19.0834 136.528 20.5654C135.513 27.7296 134.863 33.1206 134.578 36.7338C134.532 37.2931 134.535 38.2543 134.585 39.6166L124.777 39.6076C124.986 39.043 125.173 38.277 125.34 37.3166C125.45 36.6846 125.529 35.8877 125.578 34.9219C123.505 37.7662 120.656 39.4554 117.104 39.8914Z" fill="#E23744"></path></svg>